G04 #@! TF.GenerationSoftware,KiCad,Pcbnew,(5.0.0-rc2-dev-756-g45dad4ded)*
G04 #@! TF.CreationDate,2018-06-12T00:49:01-07:00*
G04 #@! TF.ProjectId,Mod-IN2-Nix-Dis,4D6F642D494E322D4E69782D4469732E,rev?*
G04 #@! TF.SameCoordinates,Original*
G04 #@! TF.FileFunction,Copper,L2,Bot,Signal*
G04 #@! TF.FilePolarity,Positive*
%FSLAX46Y46*%
G04 Gerber Fmt 4.6, Leading zero omitted, Abs format (unit mm)*
G04 Created by KiCad (PCBNEW (5.0.0-rc2-dev-756-g45dad4ded)) date 06/12/18 00:49:01*
%MOMM*%
%LPD*%
G01*
G04 APERTURE LIST*
G04 #@! TA.AperFunction,SMDPad,CuDef*
%ADD10R,1.600000X2.000000*%
G04 #@! TD*
G04 #@! TA.AperFunction,ComponentPad*
%ADD11R,1.700000X1.700000*%
G04 #@! TD*
G04 #@! TA.AperFunction,ComponentPad*
%ADD12O,1.700000X1.700000*%
G04 #@! TD*
G04 #@! TA.AperFunction,SMDPad,CuDef*
%ADD13R,1.700000X2.000000*%
G04 #@! TD*
G04 #@! TA.AperFunction,SMDPad,CuDef*
%ADD14R,1.500000X0.600000*%
G04 #@! TD*
G04 #@! TA.AperFunction,ComponentPad*
%ADD15C,1.800000*%
G04 #@! TD*
G04 #@! TA.AperFunction,ComponentPad*
%ADD16R,1.800000X1.800000*%
G04 #@! TD*
G04 #@! TA.AperFunction,ViaPad*
%ADD17C,0.600000*%
G04 #@! TD*
G04 #@! TA.AperFunction,Conductor*
%ADD18C,0.400000*%
G04 #@! TD*
G04 #@! TA.AperFunction,Conductor*
%ADD19C,0.254000*%
G04 #@! TD*
G04 APERTURE END LIST*
D10*
G04 #@! TO.P,C1,1*
G04 #@! TO.N,+5V*
X180000000Y-120000000D03*
G04 #@! TO.P,C1,2*
G04 #@! TO.N,GND*
X180000000Y-116000000D03*
G04 #@! TD*
D11*
G04 #@! TO.P,J1,1*
G04 #@! TO.N,+5V*
X164480000Y-122000000D03*
D12*
G04 #@! TO.P,J1,2*
G04 #@! TO.N,DATA*
X164480000Y-119460000D03*
G04 #@! TO.P,J1,3*
G04 #@! TO.N,CLK*
X167020000Y-122000000D03*
G04 #@! TO.P,J1,4*
G04 #@! TO.N,~CLR*
X167020000Y-119460000D03*
G04 #@! TO.P,J1,5*
G04 #@! TO.N,GND*
X169560000Y-122000000D03*
G04 #@! TO.P,J1,6*
G04 #@! TO.N,DIG_2_DEC*
X169560000Y-119460000D03*
G04 #@! TO.P,J1,7*
G04 #@! TO.N,Net-(J1-Pad7)*
X172100000Y-122000000D03*
G04 #@! TO.P,J1,8*
G04 #@! TO.N,DIG_1_DEC*
X172100000Y-119460000D03*
G04 #@! TO.P,J1,9*
G04 #@! TO.N,Net-(J1-Pad9)*
X174640000Y-122000000D03*
G04 #@! TO.P,J1,10*
G04 #@! TO.N,+170VDC*
X174640000Y-119460000D03*
G04 #@! TD*
D13*
G04 #@! TO.P,R15,1*
G04 #@! TO.N,Net-(Q13-Pad1)*
X159700000Y-90100000D03*
G04 #@! TO.P,R15,2*
G04 #@! TO.N,Net-(R15-Pad2)*
X159700000Y-94100000D03*
G04 #@! TD*
G04 #@! TO.P,R16,1*
G04 #@! TO.N,Net-(Q14-Pad1)*
X129700000Y-90100000D03*
G04 #@! TO.P,R16,2*
G04 #@! TO.N,Net-(R16-Pad2)*
X129700000Y-94100000D03*
G04 #@! TD*
G04 #@! TO.P,R19,1*
G04 #@! TO.N,Net-(Q15-Pad1)*
X162900000Y-96300000D03*
G04 #@! TO.P,R19,2*
G04 #@! TO.N,Net-(R19-Pad2)*
X162900000Y-100300000D03*
G04 #@! TD*
G04 #@! TO.P,R20,1*
G04 #@! TO.N,Net-(Q16-Pad1)*
X132900000Y-96300000D03*
G04 #@! TO.P,R20,2*
G04 #@! TO.N,Net-(R20-Pad2)*
X132900000Y-100300000D03*
G04 #@! TD*
D14*
G04 #@! TO.P,U1,1*
G04 #@! TO.N,DATA*
X157700000Y-108190000D03*
G04 #@! TO.P,U1,2*
G04 #@! TO.N,+5V*
X157700000Y-109460000D03*
G04 #@! TO.P,U1,3*
G04 #@! TO.N,Net-(U1-Pad3)*
X157700000Y-110730000D03*
G04 #@! TO.P,U1,4*
G04 #@! TO.N,Net-(U1-Pad4)*
X157700000Y-112000000D03*
G04 #@! TO.P,U1,5*
G04 #@! TO.N,Net-(U1-Pad5)*
X157700000Y-113270000D03*
G04 #@! TO.P,U1,6*
G04 #@! TO.N,Net-(U1-Pad6)*
X157700000Y-114540000D03*
G04 #@! TO.P,U1,7*
G04 #@! TO.N,GND*
X157700000Y-115810000D03*
G04 #@! TO.P,U1,8*
G04 #@! TO.N,CLK*
X152300000Y-115810000D03*
G04 #@! TO.P,U1,9*
G04 #@! TO.N,~CLR*
X152300000Y-114540000D03*
G04 #@! TO.P,U1,10*
G04 #@! TO.N,Net-(U1-Pad10)*
X152300000Y-113270000D03*
G04 #@! TO.P,U1,11*
G04 #@! TO.N,Net-(U1-Pad11)*
X152300000Y-112000000D03*
G04 #@! TO.P,U1,12*
G04 #@! TO.N,Net-(U1-Pad12)*
X152300000Y-110730000D03*
G04 #@! TO.P,U1,13*
G04 #@! TO.N,Net-(U1-Pad13)*
X152300000Y-109460000D03*
G04 #@! TO.P,U1,14*
G04 #@! TO.N,+5V*
X152300000Y-108190000D03*
G04 #@! TD*
G04 #@! TO.P,U2,1*
G04 #@! TO.N,Net-(R15-Pad2)*
X173050000Y-101555000D03*
G04 #@! TO.P,U2,2*
G04 #@! TO.N,Net-(R21-Pad2)*
X173050000Y-102825000D03*
G04 #@! TO.P,U2,3*
G04 #@! TO.N,Net-(R4-Pad2)*
X173050000Y-104095000D03*
G04 #@! TO.P,U2,4*
G04 #@! TO.N,Net-(R9-Pad2)*
X173050000Y-105365000D03*
G04 #@! TO.P,U2,5*
G04 #@! TO.N,Net-(R5-Pad2)*
X173050000Y-106635000D03*
G04 #@! TO.P,U2,6*
G04 #@! TO.N,Net-(R13-Pad2)*
X173050000Y-107905000D03*
G04 #@! TO.P,U2,7*
G04 #@! TO.N,Net-(R11-Pad2)*
X173050000Y-109175000D03*
G04 #@! TO.P,U2,8*
G04 #@! TO.N,GND*
X173050000Y-110445000D03*
G04 #@! TO.P,U2,9*
G04 #@! TO.N,Net-(R7-Pad2)*
X165950000Y-110445000D03*
G04 #@! TO.P,U2,10*
G04 #@! TO.N,Net-(U1-Pad3)*
X165950000Y-109175000D03*
G04 #@! TO.P,U2,11*
G04 #@! TO.N,Net-(U1-Pad6)*
X165950000Y-107905000D03*
G04 #@! TO.P,U2,12*
G04 #@! TO.N,Net-(U1-Pad5)*
X165950000Y-106635000D03*
G04 #@! TO.P,U2,13*
G04 #@! TO.N,Net-(U1-Pad4)*
X165950000Y-105365000D03*
G04 #@! TO.P,U2,14*
G04 #@! TO.N,Net-(R23-Pad2)*
X165950000Y-104095000D03*
G04 #@! TO.P,U2,15*
G04 #@! TO.N,Net-(R19-Pad2)*
X165950000Y-102825000D03*
G04 #@! TO.P,U2,16*
G04 #@! TO.N,+5V*
X165950000Y-101555000D03*
G04 #@! TD*
G04 #@! TO.P,U3,1*
G04 #@! TO.N,Net-(R16-Pad2)*
X143050000Y-101555000D03*
G04 #@! TO.P,U3,2*
G04 #@! TO.N,Net-(R22-Pad2)*
X143050000Y-102825000D03*
G04 #@! TO.P,U3,3*
G04 #@! TO.N,Net-(R3-Pad2)*
X143050000Y-104095000D03*
G04 #@! TO.P,U3,4*
G04 #@! TO.N,Net-(R10-Pad2)*
X143050000Y-105365000D03*
G04 #@! TO.P,U3,5*
G04 #@! TO.N,Net-(R6-Pad2)*
X143050000Y-106635000D03*
G04 #@! TO.P,U3,6*
G04 #@! TO.N,Net-(R14-Pad2)*
X143050000Y-107905000D03*
G04 #@! TO.P,U3,7*
G04 #@! TO.N,Net-(R12-Pad2)*
X143050000Y-109175000D03*
G04 #@! TO.P,U3,8*
G04 #@! TO.N,GND*
X143050000Y-110445000D03*
G04 #@! TO.P,U3,9*
G04 #@! TO.N,Net-(R8-Pad2)*
X135950000Y-110445000D03*
G04 #@! TO.P,U3,10*
G04 #@! TO.N,Net-(U1-Pad10)*
X135950000Y-109175000D03*
G04 #@! TO.P,U3,11*
G04 #@! TO.N,Net-(U1-Pad13)*
X135950000Y-107905000D03*
G04 #@! TO.P,U3,12*
G04 #@! TO.N,Net-(U1-Pad12)*
X135950000Y-106635000D03*
G04 #@! TO.P,U3,13*
G04 #@! TO.N,Net-(U1-Pad11)*
X135950000Y-105365000D03*
G04 #@! TO.P,U3,14*
G04 #@! TO.N,Net-(R24-Pad2)*
X135950000Y-104095000D03*
G04 #@! TO.P,U3,15*
G04 #@! TO.N,Net-(R20-Pad2)*
X135950000Y-102825000D03*
G04 #@! TO.P,U3,16*
G04 #@! TO.N,+5V*
X135950000Y-101555000D03*
G04 #@! TD*
D15*
G04 #@! TO.P,U5,7*
G04 #@! TO.N,Net-(Q8-Pad3)*
X140000000Y-86250000D03*
G04 #@! TO.P,U5,8*
G04 #@! TO.N,Net-(Q6-Pad3)*
X142375000Y-86886000D03*
G04 #@! TO.P,U5,9*
G04 #@! TO.N,Net-(Q4-Pad3)*
X144114000Y-88625000D03*
G04 #@! TO.P,U5,10*
G04 #@! TO.N,Net-(Q1-Pad3)*
X144750000Y-91000000D03*
G04 #@! TO.P,U5,11*
G04 #@! TO.N,Net-(R18-Pad2)*
X144114000Y-93375000D03*
D16*
G04 #@! TO.P,U5,1*
G04 #@! TO.N,Net-(Q20-Pad3)*
X140000000Y-95750000D03*
D15*
G04 #@! TO.P,U5,2*
G04 #@! TO.N,Net-(Q18-Pad3)*
X137625000Y-95114000D03*
G04 #@! TO.P,U5,3*
G04 #@! TO.N,Net-(Q16-Pad3)*
X135886000Y-93375000D03*
G04 #@! TO.P,U5,4*
G04 #@! TO.N,Net-(Q14-Pad3)*
X135250000Y-91000000D03*
G04 #@! TO.P,U5,5*
G04 #@! TO.N,Net-(Q12-Pad3)*
X135886000Y-88625000D03*
G04 #@! TO.P,U5,6*
G04 #@! TO.N,Net-(Q10-Pad3)*
X137625000Y-86886000D03*
G04 #@! TD*
G04 #@! TO.P,U4,7*
G04 #@! TO.N,Net-(Q7-Pad3)*
X170000000Y-86250000D03*
G04 #@! TO.P,U4,8*
G04 #@! TO.N,Net-(Q5-Pad3)*
X172375000Y-86886000D03*
G04 #@! TO.P,U4,9*
G04 #@! TO.N,Net-(Q3-Pad3)*
X174114000Y-88625000D03*
G04 #@! TO.P,U4,10*
G04 #@! TO.N,Net-(Q2-Pad3)*
X174750000Y-91000000D03*
G04 #@! TO.P,U4,11*
G04 #@! TO.N,Net-(R17-Pad2)*
X174114000Y-93375000D03*
D16*
G04 #@! TO.P,U4,1*
G04 #@! TO.N,Net-(Q19-Pad3)*
X170000000Y-95750000D03*
D15*
G04 #@! TO.P,U4,2*
G04 #@! TO.N,Net-(Q17-Pad3)*
X167625000Y-95114000D03*
G04 #@! TO.P,U4,3*
G04 #@! TO.N,Net-(Q15-Pad3)*
X165886000Y-93375000D03*
G04 #@! TO.P,U4,4*
G04 #@! TO.N,Net-(Q13-Pad3)*
X165250000Y-91000000D03*
G04 #@! TO.P,U4,5*
G04 #@! TO.N,Net-(Q11-Pad3)*
X165886000Y-88625000D03*
G04 #@! TO.P,U4,6*
G04 #@! TO.N,Net-(Q9-Pad3)*
X167625000Y-86886000D03*
G04 #@! TD*
D11*
G04 #@! TO.P,D1,1*
G04 #@! TO.N,GND*
X132540000Y-60000000D03*
D12*
G04 #@! TO.P,D1,2*
G04 #@! TO.N,Net-(D1-Pad2)*
X130000000Y-60000000D03*
G04 #@! TD*
D11*
G04 #@! TO.P,D2,1*
G04 #@! TO.N,GND*
X180040000Y-60000000D03*
D12*
G04 #@! TO.P,D2,2*
G04 #@! TO.N,Net-(D2-Pad2)*
X177500000Y-60000000D03*
G04 #@! TD*
D17*
G04 #@! TO.N,*
X137500000Y-113750000D03*
X134500000Y-112000000D03*
X173500000Y-114500000D03*
X173050000Y-112000000D03*
G04 #@! TO.N,+5V*
X145250000Y-112750000D03*
X141450001Y-100049999D03*
X138500000Y-99750000D03*
X163750000Y-105000000D03*
X161750000Y-105000000D03*
X155250000Y-109460000D03*
X167500000Y-101500000D03*
X178250000Y-109750000D03*
X180250000Y-111750000D03*
X180000000Y-122750000D03*
X137445000Y-101555000D03*
X150000000Y-108500000D03*
G04 #@! TO.N,GND*
X176500000Y-112500000D03*
X174445000Y-110445000D03*
X176500000Y-89500000D03*
X175000000Y-85500000D03*
X146500000Y-89500000D03*
X146000000Y-84500000D03*
X145077276Y-80126924D03*
X139050000Y-79000000D03*
X152000000Y-118500000D03*
X155000000Y-114500000D03*
X142000000Y-112000000D03*
X142000000Y-119500000D03*
X133500000Y-104000000D03*
X130076924Y-97922724D03*
X128000000Y-91950000D03*
X129226924Y-85622724D03*
X133177276Y-81076924D03*
X170950000Y-103000000D03*
X163500000Y-104000000D03*
X160076924Y-97822724D03*
X175077276Y-80126924D03*
X169050000Y-79000000D03*
X163177276Y-81076924D03*
X158000000Y-91950000D03*
X159126924Y-85822724D03*
G04 #@! TO.N,DATA*
X159750000Y-108250000D03*
G04 #@! TO.N,DIG_2_DEC*
X160000000Y-115500000D03*
G04 #@! TO.N,DIG_1_DEC*
X165000000Y-116500000D03*
X160000000Y-116500000D03*
G04 #@! TO.N,Net-(Q13-Pad1)*
X156500000Y-90100000D03*
G04 #@! TO.N,Net-(Q14-Pad1)*
X126500000Y-90100000D03*
G04 #@! TO.N,Net-(Q15-Pad1)*
X157800000Y-97100000D03*
G04 #@! TO.N,Net-(Q16-Pad1)*
X127800000Y-97100000D03*
G04 #@! TO.N,Net-(R3-Pad2)*
X152500000Y-71500000D03*
G04 #@! TO.N,Net-(R4-Pad2)*
X182500000Y-71500000D03*
G04 #@! TO.N,Net-(R5-Pad2)*
X176000000Y-71500000D03*
X177500000Y-100000000D03*
X178500000Y-101500000D03*
G04 #@! TO.N,Net-(R6-Pad2)*
X148500000Y-101500000D03*
X147500000Y-100000000D03*
X146000000Y-71500000D03*
G04 #@! TO.N,Net-(R7-Pad2)*
X171000000Y-71500000D03*
X177824264Y-98400000D03*
X179500000Y-100500000D03*
G04 #@! TO.N,Net-(R8-Pad2)*
X149500000Y-100500000D03*
X147750000Y-98250000D03*
X141000000Y-71500000D03*
G04 #@! TO.N,Net-(R9-Pad2)*
X166000000Y-71500000D03*
X176500000Y-100800000D03*
X177500000Y-102500000D03*
G04 #@! TO.N,Net-(R10-Pad2)*
X146500000Y-100800000D03*
X147500000Y-102500000D03*
X136000000Y-71500000D03*
G04 #@! TO.N,Net-(R11-Pad2)*
X161000000Y-71500000D03*
X175500000Y-101500000D03*
X178650000Y-105500000D03*
G04 #@! TO.N,Net-(R12-Pad2)*
X148650000Y-105500000D03*
X145500000Y-101500000D03*
X131000000Y-71500000D03*
G04 #@! TO.N,Net-(R13-Pad2)*
X158500000Y-71000000D03*
X174500000Y-101500000D03*
X177348542Y-105500000D03*
G04 #@! TO.N,Net-(R14-Pad2)*
X144500000Y-101500000D03*
X147300000Y-105500000D03*
X128500000Y-71000000D03*
G04 #@! TO.N,Net-(R21-Pad2)*
X167000000Y-112000000D03*
G04 #@! TO.N,Net-(R22-Pad2)*
X137000000Y-112000000D03*
G04 #@! TO.N,Net-(R23-Pad2)*
X167450000Y-104100000D03*
G04 #@! TO.N,Net-(R24-Pad2)*
X137595000Y-104095000D03*
G04 #@! TO.N,Net-(U1-Pad3)*
X164500000Y-109250000D03*
X160500000Y-109250000D03*
G04 #@! TO.N,Net-(U1-Pad10)*
X134000000Y-109000000D03*
X127000000Y-109000000D03*
G04 #@! TD*
D18*
G04 #@! TO.N,*
X135825736Y-113750000D02*
X137500000Y-113750000D01*
X134500000Y-112000000D02*
X134500000Y-112424264D01*
X134500000Y-112424264D02*
X135825736Y-113750000D01*
G04 #@! TO.N,+5V*
X145250000Y-112750000D02*
X145750000Y-112750000D01*
X145750000Y-112750000D02*
X150000000Y-108500000D01*
X138500000Y-99750000D02*
X138799999Y-100049999D01*
X138799999Y-100049999D02*
X141450001Y-100049999D01*
X161750000Y-105000000D02*
X163750000Y-105000000D01*
X155250000Y-109460000D02*
X157700000Y-109460000D01*
X154720000Y-109460000D02*
X155250000Y-109460000D01*
X165950000Y-101555000D02*
X167445000Y-101555000D01*
X167445000Y-101555000D02*
X167500000Y-101500000D01*
X180250000Y-111750000D02*
X178250000Y-109750000D01*
X180000000Y-120000000D02*
X180000000Y-122750000D01*
X135950000Y-101555000D02*
X137445000Y-101555000D01*
X150840000Y-108500000D02*
X150000000Y-108500000D01*
X152300000Y-108190000D02*
X151150000Y-108190000D01*
X151150000Y-108190000D02*
X150840000Y-108500000D01*
X152300000Y-108190000D02*
X153450000Y-108190000D01*
X153450000Y-108190000D02*
X154720000Y-109460000D01*
G04 #@! TO.N,GND*
X173050000Y-110445000D02*
X174445000Y-110445000D01*
X155240000Y-114500000D02*
X155000000Y-114500000D01*
X157700000Y-115810000D02*
X156550000Y-115810000D01*
X156550000Y-115810000D02*
X155240000Y-114500000D01*
G04 #@! TO.N,DATA*
X159750000Y-108250000D02*
X157760000Y-108250000D01*
X157760000Y-108250000D02*
X157700000Y-108190000D01*
G04 #@! TO.N,CLK*
X152300000Y-115810000D02*
X152750000Y-115810000D01*
X152750000Y-115810000D02*
X155440000Y-118500000D01*
X155440000Y-118500000D02*
X161500000Y-118500000D01*
X161500000Y-118500000D02*
X162500000Y-119500000D01*
X162500000Y-119500000D02*
X162500000Y-122440002D01*
X162500000Y-122440002D02*
X163559998Y-123500000D01*
X163559998Y-123500000D02*
X165520000Y-123500000D01*
X165520000Y-123500000D02*
X167020000Y-122000000D01*
G04 #@! TO.N,~CLR*
X155460000Y-117250000D02*
X164810000Y-117250000D01*
X167020000Y-119460000D02*
X164810000Y-117250000D01*
X152300000Y-114540000D02*
X152750000Y-114540000D01*
X152750000Y-114540000D02*
X155460000Y-117250000D01*
G04 #@! TO.N,DIG_2_DEC*
X160000000Y-115500000D02*
X165600000Y-115500000D01*
X165600000Y-115500000D02*
X166100000Y-116000000D01*
X166100000Y-116000000D02*
X169560000Y-119460000D01*
G04 #@! TO.N,DIG_1_DEC*
X160000000Y-116500000D02*
X165000000Y-116500000D01*
G04 #@! TO.N,Net-(Q13-Pad1)*
X156500000Y-90100000D02*
X159700000Y-90100000D01*
G04 #@! TO.N,Net-(Q14-Pad1)*
X126500000Y-90100000D02*
X129700000Y-90100000D01*
G04 #@! TO.N,Net-(Q15-Pad1)*
X157800000Y-97100000D02*
X157800000Y-96500000D01*
X157800000Y-96500000D02*
X158400000Y-95900000D01*
X158400000Y-95900000D02*
X162500000Y-95900000D01*
X162500000Y-95900000D02*
X162900000Y-96300000D01*
G04 #@! TO.N,Net-(Q16-Pad1)*
X132900000Y-96300000D02*
X128600000Y-96300000D01*
X128600000Y-96300000D02*
X127800000Y-97100000D01*
G04 #@! TO.N,Net-(R3-Pad2)*
X144905000Y-103795000D02*
X144600000Y-104100000D01*
X143050000Y-104095000D02*
X144595000Y-104095000D01*
X144595000Y-104095000D02*
X144600000Y-104100000D01*
X152500000Y-71500000D02*
X152500000Y-96200000D01*
X152500000Y-96200000D02*
X144905000Y-103795000D01*
G04 #@! TO.N,Net-(R4-Pad2)*
X173050000Y-104095000D02*
X174655000Y-104095000D01*
X182500000Y-96250000D02*
X182500000Y-72250000D01*
X174655000Y-104095000D02*
X182500000Y-96250000D01*
X182500000Y-72250000D02*
X182500000Y-71500000D01*
G04 #@! TO.N,Net-(R5-Pad2)*
X173050000Y-106635000D02*
X174665000Y-106635000D01*
X176700001Y-71500000D02*
X176000000Y-71500000D01*
X179500000Y-71500000D02*
X176700001Y-71500000D01*
X181500000Y-73500000D02*
X179500000Y-71500000D01*
X181500000Y-95000000D02*
X181500000Y-73500000D01*
X181500000Y-96000000D02*
X181500000Y-95000000D01*
X177500000Y-100000000D02*
X181500000Y-96000000D01*
X178500000Y-102800000D02*
X178500000Y-101500000D01*
X174665000Y-106635000D02*
X178500000Y-102800000D01*
G04 #@! TO.N,Net-(R6-Pad2)*
X147500000Y-100000000D02*
X151500000Y-96000000D01*
X151500000Y-96000000D02*
X151500000Y-74000000D01*
X151500000Y-74000000D02*
X149000000Y-71500000D01*
X149000000Y-71500000D02*
X146000000Y-71500000D01*
X143050000Y-106635000D02*
X144665000Y-106635000D01*
X144665000Y-106635000D02*
X148500000Y-102800000D01*
X148500000Y-102800000D02*
X148500000Y-101500000D01*
G04 #@! TO.N,Net-(R7-Pad2)*
X165950000Y-110445000D02*
X165950000Y-112150000D01*
X165950000Y-112150000D02*
X166700000Y-112900000D01*
X166700000Y-112900000D02*
X173700000Y-112900000D01*
X173700000Y-112900000D02*
X179500000Y-107100000D01*
X179500000Y-107100000D02*
X179500000Y-100500000D01*
X171700001Y-71500000D02*
X171000000Y-71500000D01*
X174500000Y-71500000D02*
X171700001Y-71500000D01*
X175500000Y-72500000D02*
X174500000Y-71500000D01*
X179000000Y-72500000D02*
X175500000Y-72500000D01*
X180500000Y-74000000D02*
X179000000Y-72500000D01*
X180500000Y-74500000D02*
X180500000Y-74000000D01*
X180500000Y-92500000D02*
X180500000Y-74500000D01*
X177824264Y-98400000D02*
X180500000Y-95724264D01*
X180500000Y-92500000D02*
X180500000Y-95724264D01*
G04 #@! TO.N,Net-(R8-Pad2)*
X143600010Y-112899990D02*
X149500000Y-107000000D01*
X149500000Y-103500000D02*
X149500000Y-107000000D01*
X147750000Y-98250000D02*
X148049999Y-97950001D01*
X148049999Y-97950001D02*
X150500000Y-95500000D01*
X149500000Y-100500000D02*
X149500000Y-103500000D01*
X136500000Y-112899990D02*
X143600010Y-112899990D01*
X135950000Y-110445000D02*
X135950000Y-112349990D01*
X135950000Y-112349990D02*
X136500000Y-112899990D01*
X150500000Y-95500000D02*
X150500000Y-74500000D01*
X150500000Y-74500000D02*
X148500000Y-72500000D01*
X148500000Y-72500000D02*
X145500000Y-72500000D01*
X145500000Y-72500000D02*
X144500000Y-71500000D01*
X144500000Y-71500000D02*
X141000000Y-71500000D01*
G04 #@! TO.N,Net-(R9-Pad2)*
X173050000Y-105365000D02*
X174650000Y-105365000D01*
X166000000Y-71500000D02*
X167000000Y-72500000D01*
X167000000Y-72500000D02*
X174000000Y-72500000D01*
X176500000Y-98500000D02*
X176500000Y-100800000D01*
X174000000Y-72500000D02*
X175000000Y-73500000D01*
X178500000Y-73500000D02*
X179500000Y-74500000D01*
X179500000Y-74500000D02*
X179500000Y-95500000D01*
X175000000Y-73500000D02*
X178500000Y-73500000D01*
X179500000Y-95500000D02*
X176500000Y-98500000D01*
X177515000Y-102500000D02*
X177500000Y-102500000D01*
X174650000Y-105365000D02*
X177515000Y-102500000D01*
G04 #@! TO.N,Net-(R10-Pad2)*
X149500000Y-95000000D02*
X146500000Y-98000000D01*
X146500000Y-100800000D02*
X146500000Y-98000000D01*
X146000000Y-104000000D02*
X147500000Y-102500000D01*
X145000000Y-105000000D02*
X146000000Y-104000000D01*
X144635000Y-105365000D02*
X145000000Y-105000000D01*
X143050000Y-105365000D02*
X144635000Y-105365000D01*
X149500000Y-91000000D02*
X149500000Y-95000000D01*
X136000000Y-71500000D02*
X137000000Y-72500000D01*
X137000000Y-72500000D02*
X144000000Y-72500000D01*
X145000000Y-73500000D02*
X148000000Y-73500000D01*
X144000000Y-72500000D02*
X145000000Y-73500000D01*
X148000000Y-73500000D02*
X149500000Y-75000000D01*
X149500000Y-75000000D02*
X149500000Y-91000000D01*
G04 #@! TO.N,Net-(R11-Pad2)*
X173050000Y-109175000D02*
X174975000Y-109175000D01*
X161000000Y-71500000D02*
X161000000Y-72500000D01*
X174500000Y-74500000D02*
X178000000Y-74500000D01*
X178500000Y-75000000D02*
X178500000Y-95000000D01*
X161000000Y-72500000D02*
X162000000Y-73500000D01*
X178000000Y-74500000D02*
X178500000Y-75000000D01*
X162000000Y-73500000D02*
X173500000Y-73500000D01*
X173500000Y-73500000D02*
X174500000Y-74500000D01*
X178500000Y-95000000D02*
X175500000Y-98000000D01*
X175500000Y-98000000D02*
X175500000Y-101500000D01*
X174975000Y-109175000D02*
X178650000Y-105500000D01*
G04 #@! TO.N,Net-(R12-Pad2)*
X143050000Y-109175000D02*
X144975000Y-109175000D01*
X144975000Y-109175000D02*
X148650000Y-105500000D01*
X145500000Y-101000000D02*
X145500000Y-101500000D01*
X148500000Y-94500000D02*
X145500000Y-97500000D01*
X145500000Y-97500000D02*
X145500000Y-101000000D01*
X148500000Y-90500000D02*
X148500000Y-94500000D01*
X148500000Y-75500000D02*
X148500000Y-78500000D01*
X147500000Y-74500000D02*
X148500000Y-75500000D01*
X144500000Y-74500000D02*
X147500000Y-74500000D01*
X143500000Y-73500000D02*
X144500000Y-74500000D01*
X148500000Y-78500000D02*
X148500000Y-90500000D01*
X132000000Y-73500000D02*
X143500000Y-73500000D01*
X131000000Y-72500000D02*
X132000000Y-73500000D01*
X131000000Y-71500000D02*
X131000000Y-72500000D01*
G04 #@! TO.N,Net-(R13-Pad2)*
X173050000Y-107905000D02*
X174943542Y-107905000D01*
X158500000Y-71500000D02*
X158500000Y-71000000D01*
X159000000Y-72000000D02*
X158500000Y-71500000D01*
X161500000Y-74500000D02*
X159000000Y-72000000D01*
X162100009Y-74500000D02*
X161500000Y-74500000D01*
X173000000Y-74500000D02*
X162100009Y-74500000D01*
X174000000Y-75500000D02*
X173000000Y-74500000D01*
X174600009Y-75500000D02*
X174000000Y-75500000D01*
X177000000Y-75500000D02*
X174600009Y-75500000D01*
X177500000Y-76000000D02*
X177000000Y-75500000D01*
X177500000Y-76500000D02*
X177500000Y-76000000D01*
X177500000Y-77000000D02*
X177500000Y-76500000D01*
X177500000Y-78500000D02*
X177500000Y-77000000D01*
X177500000Y-94500000D02*
X177500000Y-78500000D01*
X174500000Y-97500000D02*
X177500000Y-94500000D01*
X174500000Y-101500000D02*
X174500000Y-97500000D01*
X174943542Y-107905000D02*
X177348542Y-105500000D01*
G04 #@! TO.N,Net-(R14-Pad2)*
X128500000Y-71000000D02*
X128500000Y-71500000D01*
X128500000Y-71500000D02*
X131500000Y-74500000D01*
X147000000Y-75500000D02*
X147500000Y-76000000D01*
X131500000Y-74500000D02*
X143000000Y-74500000D01*
X143000000Y-74500000D02*
X144000000Y-75500000D01*
X144000000Y-75500000D02*
X147000000Y-75500000D01*
X147500000Y-76000000D02*
X147500000Y-94000000D01*
X147500000Y-94000000D02*
X144500000Y-97000000D01*
X144500000Y-97000000D02*
X144500000Y-100000000D01*
X144500000Y-100000000D02*
X144500000Y-101500000D01*
X144895000Y-107905000D02*
X143050000Y-107905000D01*
X144895000Y-107905000D02*
X147300000Y-105500000D01*
G04 #@! TO.N,Net-(R15-Pad2)*
X173000000Y-99800000D02*
X170700000Y-97500000D01*
X173050000Y-101555000D02*
X173050000Y-99850000D01*
X173050000Y-99850000D02*
X173000000Y-99800000D01*
X167500000Y-97500000D02*
X170700000Y-97500000D01*
X164100000Y-94100000D02*
X167500000Y-97500000D01*
X159700000Y-94100000D02*
X164100000Y-94100000D01*
G04 #@! TO.N,Net-(R16-Pad2)*
X140500000Y-97500000D02*
X137500000Y-97500000D01*
X129700000Y-94100000D02*
X134100000Y-94100000D01*
X134100000Y-94100000D02*
X137500000Y-97500000D01*
X143050000Y-100050000D02*
X140500000Y-97500000D01*
X143050000Y-101555000D02*
X143050000Y-100050000D01*
G04 #@! TO.N,Net-(R19-Pad2)*
X165950000Y-102825000D02*
X164025000Y-102825000D01*
X162900000Y-100300000D02*
X162900000Y-101700000D01*
X162900000Y-101700000D02*
X164025000Y-102825000D01*
G04 #@! TO.N,Net-(R20-Pad2)*
X132900000Y-100300000D02*
X132900000Y-101700000D01*
X132900000Y-101700000D02*
X134025000Y-102825000D01*
X134025000Y-102825000D02*
X134800000Y-102825000D01*
X134800000Y-102825000D02*
X135950000Y-102825000D01*
G04 #@! TO.N,Net-(R21-Pad2)*
X167000000Y-112000000D02*
X169000000Y-112000000D01*
X169000000Y-112000000D02*
X171000000Y-110000000D01*
X171000000Y-110000000D02*
X171000000Y-104425000D01*
X171000000Y-104425000D02*
X172600000Y-102825000D01*
X172600000Y-102825000D02*
X173050000Y-102825000D01*
G04 #@! TO.N,Net-(R22-Pad2)*
X141000000Y-110000000D02*
X139000000Y-112000000D01*
X139000000Y-112000000D02*
X137000000Y-112000000D01*
X141000000Y-104425000D02*
X141000000Y-110000000D01*
X143050000Y-102825000D02*
X142600000Y-102825000D01*
X142600000Y-102825000D02*
X141000000Y-104425000D01*
G04 #@! TO.N,Net-(R23-Pad2)*
X167450000Y-104100000D02*
X165955000Y-104100000D01*
X165955000Y-104100000D02*
X165950000Y-104095000D01*
G04 #@! TO.N,Net-(R24-Pad2)*
X135950000Y-104095000D02*
X137595000Y-104095000D01*
G04 #@! TO.N,Net-(U1-Pad3)*
X157700000Y-110730000D02*
X159020000Y-110730000D01*
X159020000Y-110730000D02*
X160500000Y-109250000D01*
X164500000Y-109250000D02*
X165875000Y-109250000D01*
X165875000Y-109250000D02*
X165950000Y-109175000D01*
G04 #@! TO.N,Net-(U1-Pad4)*
X161500000Y-110500000D02*
X161500000Y-108665000D01*
X161500000Y-108665000D02*
X164800000Y-105365000D01*
X164800000Y-105365000D02*
X165950000Y-105365000D01*
X160000000Y-112000000D02*
X161500000Y-110500000D01*
X157700000Y-112000000D02*
X160000000Y-112000000D01*
G04 #@! TO.N,Net-(U1-Pad5)*
X162500000Y-111000000D02*
X162500000Y-108935000D01*
X162500000Y-108935000D02*
X164800000Y-106635000D01*
X164800000Y-106635000D02*
X165950000Y-106635000D01*
X160230000Y-113270000D02*
X162500000Y-111000000D01*
X157700000Y-113270000D02*
X160230000Y-113270000D01*
G04 #@! TO.N,Net-(U1-Pad6)*
X163500000Y-109000000D02*
X164595000Y-107905000D01*
X164595000Y-107905000D02*
X165950000Y-107905000D01*
X163500000Y-111500000D02*
X163500000Y-109000000D01*
X160460000Y-114540000D02*
X163500000Y-111500000D01*
X157700000Y-114540000D02*
X160460000Y-114540000D01*
G04 #@! TO.N,Net-(U1-Pad10)*
X134000000Y-109000000D02*
X135775000Y-109000000D01*
X135775000Y-109000000D02*
X135950000Y-109175000D01*
X127000000Y-112500000D02*
X127000000Y-109000000D01*
X132000000Y-117500000D02*
X127000000Y-112500000D01*
X146920000Y-117500000D02*
X132000000Y-117500000D01*
X152300000Y-113270000D02*
X151150000Y-113270000D01*
X151150000Y-113270000D02*
X146920000Y-117500000D01*
G04 #@! TO.N,Net-(U1-Pad11)*
X128000000Y-108500000D02*
X131135000Y-105365000D01*
X131135000Y-105365000D02*
X135950000Y-105365000D01*
X128000000Y-112000000D02*
X128000000Y-108500000D01*
X132500000Y-116500000D02*
X128000000Y-112000000D01*
X146650000Y-116500000D02*
X132500000Y-116500000D01*
X152300000Y-112000000D02*
X151150000Y-112000000D01*
X151150000Y-112000000D02*
X146650000Y-116500000D01*
X152300000Y-112000000D02*
X151850000Y-112000000D01*
G04 #@! TO.N,Net-(U1-Pad12)*
X129000000Y-109000000D02*
X131365000Y-106635000D01*
X131365000Y-106635000D02*
X135950000Y-106635000D01*
X129000000Y-111500000D02*
X129000000Y-109000000D01*
X133000000Y-115500000D02*
X129000000Y-111500000D01*
X146380000Y-115500000D02*
X133000000Y-115500000D01*
X152300000Y-110730000D02*
X151150000Y-110730000D01*
X151150000Y-110730000D02*
X146380000Y-115500000D01*
G04 #@! TO.N,Net-(U1-Pad13)*
X152300000Y-109460000D02*
X151150000Y-109460000D01*
X133500000Y-114500000D02*
X130000000Y-111000000D01*
X151150000Y-109460000D02*
X146110000Y-114500000D01*
X146110000Y-114500000D02*
X133500000Y-114500000D01*
X130000000Y-111000000D02*
X130000000Y-109500000D01*
X130000000Y-109500000D02*
X131595000Y-107905000D01*
X131595000Y-107905000D02*
X135950000Y-107905000D01*
G04 #@! TD*
D19*
G04 #@! TO.N,GND*
G36*
X184290001Y-125290000D02*
X125710000Y-125290000D01*
X125710000Y-108814017D01*
X126065000Y-108814017D01*
X126065000Y-109185983D01*
X126165001Y-109427407D01*
X126165000Y-112417767D01*
X126148643Y-112500000D01*
X126165000Y-112582233D01*
X126165000Y-112582236D01*
X126213448Y-112825800D01*
X126397999Y-113102001D01*
X126467720Y-113148587D01*
X131351415Y-118032283D01*
X131397999Y-118102001D01*
X131674199Y-118286552D01*
X132000000Y-118351358D01*
X132082237Y-118335000D01*
X146837767Y-118335000D01*
X146920000Y-118351357D01*
X147002233Y-118335000D01*
X147002237Y-118335000D01*
X147245801Y-118286552D01*
X147522001Y-118102001D01*
X147568587Y-118032280D01*
X150902560Y-114698309D01*
X150902560Y-114840000D01*
X150951843Y-115087765D01*
X151010132Y-115175000D01*
X150951843Y-115262235D01*
X150902560Y-115510000D01*
X150902560Y-116110000D01*
X150951843Y-116357765D01*
X151092191Y-116567809D01*
X151302235Y-116708157D01*
X151550000Y-116757440D01*
X152516573Y-116757440D01*
X154368814Y-118609683D01*
X153737577Y-118865360D01*
X153165715Y-119330929D01*
X152756029Y-119944067D01*
X152544741Y-120650565D01*
X152550533Y-121387957D01*
X152772892Y-122091049D01*
X153192158Y-122697677D01*
X153771263Y-123154206D01*
X154459005Y-123420274D01*
X155194579Y-123472355D01*
X155912949Y-123305846D01*
X156550602Y-122935467D01*
X157051160Y-122393967D01*
X157370367Y-121729220D01*
X157480000Y-121000000D01*
X157479694Y-120961046D01*
X157358620Y-120233638D01*
X157029011Y-119573987D01*
X156801028Y-119335000D01*
X161154133Y-119335000D01*
X161665000Y-119845868D01*
X161665001Y-122357764D01*
X161648643Y-122440002D01*
X161713448Y-122765802D01*
X161790660Y-122881358D01*
X161898000Y-123042003D01*
X161967718Y-123088587D01*
X162911413Y-124032282D01*
X162957997Y-124102001D01*
X163234197Y-124286552D01*
X163477761Y-124335000D01*
X163559998Y-124351358D01*
X163642235Y-124335000D01*
X165437767Y-124335000D01*
X165520000Y-124351357D01*
X165602233Y-124335000D01*
X165602237Y-124335000D01*
X165845801Y-124286552D01*
X166122001Y-124102001D01*
X166168587Y-124032280D01*
X166742061Y-123458807D01*
X166873744Y-123485000D01*
X167166256Y-123485000D01*
X167599418Y-123398839D01*
X168090625Y-123070625D01*
X168303843Y-122751522D01*
X168364817Y-122881358D01*
X168793076Y-123271645D01*
X169203110Y-123441476D01*
X169433000Y-123320155D01*
X169433000Y-122127000D01*
X169413000Y-122127000D01*
X169413000Y-121873000D01*
X169433000Y-121873000D01*
X169433000Y-121853000D01*
X169687000Y-121853000D01*
X169687000Y-121873000D01*
X169707000Y-121873000D01*
X169707000Y-122127000D01*
X169687000Y-122127000D01*
X169687000Y-123320155D01*
X169916890Y-123441476D01*
X170326924Y-123271645D01*
X170755183Y-122881358D01*
X170816157Y-122751522D01*
X171029375Y-123070625D01*
X171520582Y-123398839D01*
X171953744Y-123485000D01*
X172246256Y-123485000D01*
X172679418Y-123398839D01*
X173170625Y-123070625D01*
X173370000Y-122772239D01*
X173569375Y-123070625D01*
X174060582Y-123398839D01*
X174493744Y-123485000D01*
X174786256Y-123485000D01*
X175219418Y-123398839D01*
X175710625Y-123070625D01*
X176038839Y-122579418D01*
X176154092Y-122000000D01*
X176038839Y-121420582D01*
X175710625Y-120929375D01*
X175412239Y-120730000D01*
X175710625Y-120530625D01*
X176038839Y-120039418D01*
X176154092Y-119460000D01*
X176062593Y-119000000D01*
X178552560Y-119000000D01*
X178552560Y-121000000D01*
X178601843Y-121247765D01*
X178742191Y-121457809D01*
X178952235Y-121598157D01*
X179165001Y-121640478D01*
X179165001Y-122322593D01*
X179065000Y-122564017D01*
X179065000Y-122935983D01*
X179207345Y-123279635D01*
X179470365Y-123542655D01*
X179814017Y-123685000D01*
X180185983Y-123685000D01*
X180529635Y-123542655D01*
X180792655Y-123279635D01*
X180935000Y-122935983D01*
X180935000Y-122564017D01*
X180835000Y-122322595D01*
X180835000Y-121640478D01*
X181047765Y-121598157D01*
X181257809Y-121457809D01*
X181398157Y-121247765D01*
X181447440Y-121000000D01*
X181447440Y-119000000D01*
X181398157Y-118752235D01*
X181257809Y-118542191D01*
X181047765Y-118401843D01*
X180800000Y-118352560D01*
X179200000Y-118352560D01*
X178952235Y-118401843D01*
X178742191Y-118542191D01*
X178601843Y-118752235D01*
X178552560Y-119000000D01*
X176062593Y-119000000D01*
X176038839Y-118880582D01*
X175710625Y-118389375D01*
X175219418Y-118061161D01*
X174786256Y-117975000D01*
X174493744Y-117975000D01*
X174060582Y-118061161D01*
X173569375Y-118389375D01*
X173370000Y-118687761D01*
X173170625Y-118389375D01*
X172679418Y-118061161D01*
X172246256Y-117975000D01*
X171953744Y-117975000D01*
X171520582Y-118061161D01*
X171029375Y-118389375D01*
X170830000Y-118687761D01*
X170630625Y-118389375D01*
X170139418Y-118061161D01*
X169706256Y-117975000D01*
X169413744Y-117975000D01*
X169282061Y-118001193D01*
X167566618Y-116285750D01*
X178565000Y-116285750D01*
X178565000Y-117126309D01*
X178661673Y-117359698D01*
X178840301Y-117538327D01*
X179073690Y-117635000D01*
X179714250Y-117635000D01*
X179873000Y-117476250D01*
X179873000Y-116127000D01*
X180127000Y-116127000D01*
X180127000Y-117476250D01*
X180285750Y-117635000D01*
X180926310Y-117635000D01*
X181159699Y-117538327D01*
X181338327Y-117359698D01*
X181435000Y-117126309D01*
X181435000Y-116285750D01*
X181276250Y-116127000D01*
X180127000Y-116127000D01*
X179873000Y-116127000D01*
X178723750Y-116127000D01*
X178565000Y-116285750D01*
X167566618Y-116285750D01*
X166632283Y-115351416D01*
X166248587Y-114967720D01*
X166202001Y-114897999D01*
X165925801Y-114713448D01*
X165682237Y-114665000D01*
X165682233Y-114665000D01*
X165600000Y-114648643D01*
X165517767Y-114665000D01*
X161515867Y-114665000D01*
X164032283Y-112148585D01*
X164102001Y-112102001D01*
X164286552Y-111825801D01*
X164335000Y-111582237D01*
X164335000Y-111582234D01*
X164351357Y-111500001D01*
X164335000Y-111417768D01*
X164335000Y-110185000D01*
X164552560Y-110185000D01*
X164552560Y-110745000D01*
X164601843Y-110992765D01*
X164742191Y-111202809D01*
X164952235Y-111343157D01*
X165115001Y-111375533D01*
X165115001Y-112067762D01*
X165098643Y-112150000D01*
X165163448Y-112475800D01*
X165208119Y-112542655D01*
X165348000Y-112752001D01*
X165417718Y-112798585D01*
X166051414Y-113432282D01*
X166097999Y-113502001D01*
X166374199Y-113686552D01*
X166617763Y-113735000D01*
X166617766Y-113735000D01*
X166699999Y-113751357D01*
X166782232Y-113735000D01*
X172942710Y-113735000D01*
X172707345Y-113970365D01*
X172565000Y-114314017D01*
X172565000Y-114685983D01*
X172707345Y-115029635D01*
X172970365Y-115292655D01*
X173314017Y-115435000D01*
X173685983Y-115435000D01*
X174029635Y-115292655D01*
X174292655Y-115029635D01*
X174357248Y-114873691D01*
X178565000Y-114873691D01*
X178565000Y-115714250D01*
X178723750Y-115873000D01*
X179873000Y-115873000D01*
X179873000Y-114523750D01*
X180127000Y-114523750D01*
X180127000Y-115873000D01*
X181276250Y-115873000D01*
X181435000Y-115714250D01*
X181435000Y-114873691D01*
X181338327Y-114640302D01*
X181159699Y-114461673D01*
X180926310Y-114365000D01*
X180285750Y-114365000D01*
X180127000Y-114523750D01*
X179873000Y-114523750D01*
X179714250Y-114365000D01*
X179073690Y-114365000D01*
X178840301Y-114461673D01*
X178661673Y-114640302D01*
X178565000Y-114873691D01*
X174357248Y-114873691D01*
X174435000Y-114685983D01*
X174435000Y-114314017D01*
X174292655Y-113970365D01*
X174029635Y-113707345D01*
X173994478Y-113692783D01*
X174025801Y-113686552D01*
X174302001Y-113502001D01*
X174348587Y-113432280D01*
X177479289Y-110301579D01*
X177720365Y-110542655D01*
X177961788Y-110642656D01*
X179357345Y-112038213D01*
X179457345Y-112279635D01*
X179720365Y-112542655D01*
X180064017Y-112685000D01*
X180435983Y-112685000D01*
X180779635Y-112542655D01*
X181042655Y-112279635D01*
X181185000Y-111935983D01*
X181185000Y-111564017D01*
X181042655Y-111220365D01*
X180779635Y-110957345D01*
X180538213Y-110857345D01*
X179142656Y-109461788D01*
X179042655Y-109220365D01*
X178801579Y-108979289D01*
X180032283Y-107748585D01*
X180102001Y-107702001D01*
X180286552Y-107425801D01*
X180335000Y-107182237D01*
X180335000Y-107182236D01*
X180351358Y-107100000D01*
X180335000Y-107017763D01*
X180335000Y-100927405D01*
X180435000Y-100685983D01*
X180435000Y-100314017D01*
X180292655Y-99970365D01*
X180126579Y-99804289D01*
X183032286Y-96898583D01*
X183102001Y-96852001D01*
X183181994Y-96732284D01*
X183286552Y-96575801D01*
X183315099Y-96432284D01*
X183335000Y-96332237D01*
X183335000Y-96332234D01*
X183351357Y-96250001D01*
X183335000Y-96167768D01*
X183335000Y-71927405D01*
X183435000Y-71685983D01*
X183435000Y-71314017D01*
X183292655Y-70970365D01*
X183029635Y-70707345D01*
X182685983Y-70565000D01*
X182314017Y-70565000D01*
X181970365Y-70707345D01*
X181707345Y-70970365D01*
X181565000Y-71314017D01*
X181565000Y-71685983D01*
X181665000Y-71927405D01*
X181665000Y-72332236D01*
X181665001Y-72332241D01*
X181665001Y-72484133D01*
X180148587Y-70967720D01*
X180102001Y-70897999D01*
X179825801Y-70713448D01*
X179582237Y-70665000D01*
X179582233Y-70665000D01*
X179500000Y-70648643D01*
X179417767Y-70665000D01*
X176427405Y-70665000D01*
X176185983Y-70565000D01*
X175814017Y-70565000D01*
X175470365Y-70707345D01*
X175207345Y-70970365D01*
X175190910Y-71010043D01*
X175148587Y-70967720D01*
X175102001Y-70897999D01*
X174825801Y-70713448D01*
X174582237Y-70665000D01*
X174582233Y-70665000D01*
X174500000Y-70648643D01*
X174417767Y-70665000D01*
X171427405Y-70665000D01*
X171185983Y-70565000D01*
X170814017Y-70565000D01*
X170470365Y-70707345D01*
X170207345Y-70970365D01*
X170065000Y-71314017D01*
X170065000Y-71665000D01*
X167345868Y-71665000D01*
X166892656Y-71211788D01*
X166792655Y-70970365D01*
X166529635Y-70707345D01*
X166185983Y-70565000D01*
X165814017Y-70565000D01*
X165470365Y-70707345D01*
X165207345Y-70970365D01*
X165065000Y-71314017D01*
X165065000Y-71685983D01*
X165207345Y-72029635D01*
X165470365Y-72292655D01*
X165711788Y-72392656D01*
X165984132Y-72665000D01*
X162345868Y-72665000D01*
X161835000Y-72154133D01*
X161835000Y-71927405D01*
X161935000Y-71685983D01*
X161935000Y-71314017D01*
X161792655Y-70970365D01*
X161529635Y-70707345D01*
X161185983Y-70565000D01*
X160814017Y-70565000D01*
X160470365Y-70707345D01*
X160207345Y-70970365D01*
X160065000Y-71314017D01*
X160065000Y-71685983D01*
X160165000Y-71927406D01*
X160165000Y-71984133D01*
X159415039Y-71234172D01*
X159435000Y-71185983D01*
X159435000Y-70814017D01*
X159292655Y-70470365D01*
X159029635Y-70207345D01*
X158685983Y-70065000D01*
X158314017Y-70065000D01*
X157970365Y-70207345D01*
X157707345Y-70470365D01*
X157565000Y-70814017D01*
X157565000Y-71185983D01*
X157663705Y-71424278D01*
X157648643Y-71500000D01*
X157665000Y-71582233D01*
X157665000Y-71582236D01*
X157713448Y-71825800D01*
X157897999Y-72102001D01*
X157967720Y-72148587D01*
X158351416Y-72532283D01*
X160851415Y-75032283D01*
X160897999Y-75102001D01*
X161174199Y-75286552D01*
X161500000Y-75351358D01*
X161582237Y-75335000D01*
X172654133Y-75335000D01*
X173351415Y-76032282D01*
X173397999Y-76102001D01*
X173674199Y-76286552D01*
X173917763Y-76335000D01*
X174000000Y-76351358D01*
X174082237Y-76335000D01*
X176654133Y-76335000D01*
X176665000Y-76345867D01*
X176665000Y-77082236D01*
X176665001Y-77082241D01*
X176665000Y-78582236D01*
X176665001Y-78582241D01*
X176665000Y-94154132D01*
X173967718Y-96851415D01*
X173898000Y-96897999D01*
X173851417Y-96967716D01*
X173851416Y-96967717D01*
X173713448Y-97174200D01*
X173648643Y-97500000D01*
X173665001Y-97582238D01*
X173665001Y-99267454D01*
X173652001Y-99247999D01*
X173582283Y-99201415D01*
X171410227Y-97029360D01*
X171498157Y-96897765D01*
X171547440Y-96650000D01*
X171547440Y-94850000D01*
X171498157Y-94602235D01*
X171357809Y-94392191D01*
X171147765Y-94251843D01*
X170900000Y-94202560D01*
X169100000Y-94202560D01*
X168920151Y-94238334D01*
X168494507Y-93812690D01*
X167930330Y-93579000D01*
X167421000Y-93579000D01*
X167421000Y-93069670D01*
X167187310Y-92505493D01*
X166755507Y-92073690D01*
X166466739Y-91954078D01*
X166551310Y-91869507D01*
X166785000Y-91305330D01*
X166785000Y-90694670D01*
X166551310Y-90130493D01*
X166466739Y-90045922D01*
X166755507Y-89926310D01*
X167187310Y-89494507D01*
X167421000Y-88930330D01*
X167421000Y-88421000D01*
X167930330Y-88421000D01*
X168494507Y-88187310D01*
X168926310Y-87755507D01*
X169045922Y-87466739D01*
X169130493Y-87551310D01*
X169694670Y-87785000D01*
X170305330Y-87785000D01*
X170869507Y-87551310D01*
X170954078Y-87466739D01*
X171073690Y-87755507D01*
X171505493Y-88187310D01*
X172069670Y-88421000D01*
X172579000Y-88421000D01*
X172579000Y-88930330D01*
X172812690Y-89494507D01*
X173244493Y-89926310D01*
X173533261Y-90045922D01*
X173448690Y-90130493D01*
X173215000Y-90694670D01*
X173215000Y-91305330D01*
X173448690Y-91869507D01*
X173533261Y-91954078D01*
X173244493Y-92073690D01*
X172812690Y-92505493D01*
X172579000Y-93069670D01*
X172579000Y-93680330D01*
X172812690Y-94244507D01*
X173244493Y-94676310D01*
X173808670Y-94910000D01*
X174419330Y-94910000D01*
X174983507Y-94676310D01*
X175415310Y-94244507D01*
X175649000Y-93680330D01*
X175649000Y-93069670D01*
X175415310Y-92505493D01*
X175330739Y-92420922D01*
X175619507Y-92301310D01*
X176051310Y-91869507D01*
X176285000Y-91305330D01*
X176285000Y-90694670D01*
X176051310Y-90130493D01*
X175619507Y-89698690D01*
X175330739Y-89579078D01*
X175415310Y-89494507D01*
X175649000Y-88930330D01*
X175649000Y-88319670D01*
X175415310Y-87755493D01*
X174983507Y-87323690D01*
X174419330Y-87090000D01*
X173910000Y-87090000D01*
X173910000Y-86580670D01*
X173676310Y-86016493D01*
X173244507Y-85584690D01*
X172680330Y-85351000D01*
X172069670Y-85351000D01*
X171505493Y-85584690D01*
X171420922Y-85669261D01*
X171301310Y-85380493D01*
X170869507Y-84948690D01*
X170305330Y-84715000D01*
X169694670Y-84715000D01*
X169130493Y-84948690D01*
X168698690Y-85380493D01*
X168579078Y-85669261D01*
X168494507Y-85584690D01*
X167930330Y-85351000D01*
X167319670Y-85351000D01*
X166755493Y-85584690D01*
X166323690Y-86016493D01*
X166090000Y-86580670D01*
X166090000Y-87090000D01*
X165580670Y-87090000D01*
X165016493Y-87323690D01*
X164584690Y-87755493D01*
X164351000Y-88319670D01*
X164351000Y-88930330D01*
X164584690Y-89494507D01*
X164669261Y-89579078D01*
X164380493Y-89698690D01*
X163948690Y-90130493D01*
X163715000Y-90694670D01*
X163715000Y-91305330D01*
X163948690Y-91869507D01*
X164380493Y-92301310D01*
X164669261Y-92420922D01*
X164584690Y-92505493D01*
X164351000Y-93069670D01*
X164351000Y-93298569D01*
X164182237Y-93265000D01*
X164182233Y-93265000D01*
X164100000Y-93248643D01*
X164017767Y-93265000D01*
X161197440Y-93265000D01*
X161197440Y-93100000D01*
X161148157Y-92852235D01*
X161007809Y-92642191D01*
X160797765Y-92501843D01*
X160550000Y-92452560D01*
X158850000Y-92452560D01*
X158602235Y-92501843D01*
X158392191Y-92642191D01*
X158251843Y-92852235D01*
X158202560Y-93100000D01*
X158202560Y-95087915D01*
X158074199Y-95113448D01*
X157797999Y-95297999D01*
X157751414Y-95367718D01*
X157267718Y-95851415D01*
X157198000Y-95897999D01*
X157013448Y-96174199D01*
X156965000Y-96417763D01*
X156965000Y-96417767D01*
X156948643Y-96500000D01*
X156965000Y-96582233D01*
X156965000Y-96672595D01*
X156865000Y-96914017D01*
X156865000Y-97285983D01*
X157007345Y-97629635D01*
X157270365Y-97892655D01*
X157614017Y-98035000D01*
X157985983Y-98035000D01*
X158329635Y-97892655D01*
X158592655Y-97629635D01*
X158735000Y-97285983D01*
X158735000Y-96914017D01*
X158685750Y-96795117D01*
X158745868Y-96735000D01*
X161402560Y-96735000D01*
X161402560Y-97300000D01*
X161451843Y-97547765D01*
X161592191Y-97757809D01*
X161802235Y-97898157D01*
X162050000Y-97947440D01*
X163750000Y-97947440D01*
X163997765Y-97898157D01*
X164207809Y-97757809D01*
X164348157Y-97547765D01*
X164397440Y-97300000D01*
X164397440Y-95578307D01*
X166851415Y-98032283D01*
X166897999Y-98102001D01*
X167174199Y-98286552D01*
X167417763Y-98335000D01*
X167417766Y-98335000D01*
X167499999Y-98351357D01*
X167582232Y-98335000D01*
X170354133Y-98335000D01*
X172215001Y-100195869D01*
X172215001Y-100624467D01*
X172052235Y-100656843D01*
X171842191Y-100797191D01*
X171701843Y-101007235D01*
X171652560Y-101255000D01*
X171652560Y-101855000D01*
X171701843Y-102102765D01*
X171760132Y-102190000D01*
X171701843Y-102277235D01*
X171652560Y-102525000D01*
X171652560Y-102591572D01*
X170467718Y-103776415D01*
X170398000Y-103822999D01*
X170351416Y-103892717D01*
X170213448Y-104099200D01*
X170148643Y-104425000D01*
X170165001Y-104507238D01*
X170165000Y-109654132D01*
X168654133Y-111165000D01*
X167427405Y-111165000D01*
X167236037Y-111085733D01*
X167298157Y-110992765D01*
X167347440Y-110745000D01*
X167347440Y-110145000D01*
X167298157Y-109897235D01*
X167239868Y-109810000D01*
X167298157Y-109722765D01*
X167347440Y-109475000D01*
X167347440Y-108875000D01*
X167298157Y-108627235D01*
X167239868Y-108540000D01*
X167298157Y-108452765D01*
X167347440Y-108205000D01*
X167347440Y-107605000D01*
X167298157Y-107357235D01*
X167239868Y-107270000D01*
X167298157Y-107182765D01*
X167347440Y-106935000D01*
X167347440Y-106335000D01*
X167298157Y-106087235D01*
X167239868Y-106000000D01*
X167298157Y-105912765D01*
X167347440Y-105665000D01*
X167347440Y-105065000D01*
X167341473Y-105035000D01*
X167635983Y-105035000D01*
X167979635Y-104892655D01*
X168242655Y-104629635D01*
X168385000Y-104285983D01*
X168385000Y-103914017D01*
X168242655Y-103570365D01*
X167979635Y-103307345D01*
X167635983Y-103165000D01*
X167339484Y-103165000D01*
X167347440Y-103125000D01*
X167347440Y-102525000D01*
X167329538Y-102435000D01*
X167685983Y-102435000D01*
X168029635Y-102292655D01*
X168292655Y-102029635D01*
X168435000Y-101685983D01*
X168435000Y-101314017D01*
X168292655Y-100970365D01*
X168029635Y-100707345D01*
X167685983Y-100565000D01*
X167314017Y-100565000D01*
X167003071Y-100693798D01*
X166947765Y-100656843D01*
X166700000Y-100607560D01*
X165200000Y-100607560D01*
X164952235Y-100656843D01*
X164742191Y-100797191D01*
X164601843Y-101007235D01*
X164552560Y-101255000D01*
X164552560Y-101855000D01*
X164579413Y-101990000D01*
X164370869Y-101990000D01*
X164166368Y-101785499D01*
X164207809Y-101757809D01*
X164348157Y-101547765D01*
X164397440Y-101300000D01*
X164397440Y-99300000D01*
X164348157Y-99052235D01*
X164207809Y-98842191D01*
X163997765Y-98701843D01*
X163750000Y-98652560D01*
X162050000Y-98652560D01*
X161802235Y-98701843D01*
X161592191Y-98842191D01*
X161451843Y-99052235D01*
X161402560Y-99300000D01*
X161402560Y-101300000D01*
X161451843Y-101547765D01*
X161592191Y-101757809D01*
X161802235Y-101898157D01*
X162050000Y-101947440D01*
X162097861Y-101947440D01*
X162113448Y-102025800D01*
X162164364Y-102102001D01*
X162298000Y-102302001D01*
X162367718Y-102348585D01*
X163376416Y-103357285D01*
X163422999Y-103427001D01*
X163699199Y-103611552D01*
X163942763Y-103660000D01*
X163942766Y-103660000D01*
X164024999Y-103676357D01*
X164107232Y-103660000D01*
X164579413Y-103660000D01*
X164552560Y-103795000D01*
X164552560Y-104395000D01*
X164584678Y-104556472D01*
X164578806Y-104557640D01*
X164542655Y-104470365D01*
X164279635Y-104207345D01*
X163935983Y-104065000D01*
X163564017Y-104065000D01*
X163322595Y-104165000D01*
X162177405Y-104165000D01*
X161935983Y-104065000D01*
X161564017Y-104065000D01*
X161220365Y-104207345D01*
X160957345Y-104470365D01*
X160815000Y-104814017D01*
X160815000Y-105185983D01*
X160957345Y-105529635D01*
X161220365Y-105792655D01*
X161564017Y-105935000D01*
X161935983Y-105935000D01*
X162177405Y-105835000D01*
X163149132Y-105835000D01*
X160967718Y-108016415D01*
X160898000Y-108062999D01*
X160829845Y-108165000D01*
X160720159Y-108329156D01*
X160685983Y-108315000D01*
X160685000Y-108315000D01*
X160685000Y-108064017D01*
X160542655Y-107720365D01*
X160279635Y-107457345D01*
X159935983Y-107315000D01*
X159564017Y-107315000D01*
X159322595Y-107415000D01*
X158882081Y-107415000D01*
X158697765Y-107291843D01*
X158450000Y-107242560D01*
X156950000Y-107242560D01*
X156702235Y-107291843D01*
X156492191Y-107432191D01*
X156351843Y-107642235D01*
X156302560Y-107890000D01*
X156302560Y-108490000D01*
X156329413Y-108625000D01*
X155677405Y-108625000D01*
X155435983Y-108525000D01*
X155064017Y-108525000D01*
X154994615Y-108553747D01*
X154098587Y-107657720D01*
X154052001Y-107587999D01*
X153775801Y-107403448D01*
X153532237Y-107355000D01*
X153532233Y-107355000D01*
X153450000Y-107338643D01*
X153386661Y-107351242D01*
X153297765Y-107291843D01*
X153050000Y-107242560D01*
X151550000Y-107242560D01*
X151302235Y-107291843D01*
X151213339Y-107351242D01*
X151149999Y-107338643D01*
X151067766Y-107355000D01*
X151067763Y-107355000D01*
X150824199Y-107403448D01*
X150547999Y-107587999D01*
X150501413Y-107657720D01*
X150494133Y-107665000D01*
X150427405Y-107665000D01*
X150185983Y-107565000D01*
X150126724Y-107565000D01*
X150286552Y-107325801D01*
X150335000Y-107082237D01*
X150351358Y-107000000D01*
X150335000Y-106917763D01*
X150335000Y-103033352D01*
X155270204Y-103033352D01*
X155389288Y-103798175D01*
X155718246Y-104498832D01*
X156230633Y-105079000D01*
X156885258Y-105492037D01*
X157629496Y-105704742D01*
X158403520Y-105700013D01*
X159145104Y-105478233D01*
X159794634Y-105057228D01*
X160299895Y-104470844D01*
X160620268Y-103766220D01*
X160730000Y-103000000D01*
X160729185Y-102933300D01*
X160600766Y-102169990D01*
X160263273Y-101473403D01*
X159743836Y-100899539D01*
X159084214Y-100494530D01*
X158337432Y-100290934D01*
X157563524Y-100305118D01*
X156824705Y-100535942D01*
X156180366Y-100964851D01*
X155682307Y-101557363D01*
X155370566Y-102265849D01*
X155270204Y-103033352D01*
X150335000Y-103033352D01*
X150335000Y-100927405D01*
X150435000Y-100685983D01*
X150435000Y-100314017D01*
X150292655Y-99970365D01*
X150101579Y-99779289D01*
X153032283Y-96848585D01*
X153102001Y-96802001D01*
X153286552Y-96525801D01*
X153335000Y-96282237D01*
X153335000Y-96282234D01*
X153351357Y-96200001D01*
X153335000Y-96117768D01*
X153335000Y-89914017D01*
X155565000Y-89914017D01*
X155565000Y-90285983D01*
X155707345Y-90629635D01*
X155970365Y-90892655D01*
X156314017Y-91035000D01*
X156685983Y-91035000D01*
X156927405Y-90935000D01*
X158202560Y-90935000D01*
X158202560Y-91100000D01*
X158251843Y-91347765D01*
X158392191Y-91557809D01*
X158602235Y-91698157D01*
X158850000Y-91747440D01*
X160550000Y-91747440D01*
X160797765Y-91698157D01*
X161007809Y-91557809D01*
X161148157Y-91347765D01*
X161197440Y-91100000D01*
X161197440Y-89100000D01*
X161148157Y-88852235D01*
X161007809Y-88642191D01*
X160797765Y-88501843D01*
X160550000Y-88452560D01*
X158850000Y-88452560D01*
X158602235Y-88501843D01*
X158392191Y-88642191D01*
X158251843Y-88852235D01*
X158202560Y-89100000D01*
X158202560Y-89265000D01*
X156927405Y-89265000D01*
X156685983Y-89165000D01*
X156314017Y-89165000D01*
X155970365Y-89307345D01*
X155707345Y-89570365D01*
X155565000Y-89914017D01*
X153335000Y-89914017D01*
X153335000Y-71927405D01*
X153435000Y-71685983D01*
X153435000Y-71314017D01*
X153292655Y-70970365D01*
X153029635Y-70707345D01*
X152685983Y-70565000D01*
X152314017Y-70565000D01*
X151970365Y-70707345D01*
X151707345Y-70970365D01*
X151565000Y-71314017D01*
X151565000Y-71685983D01*
X151665000Y-71927405D01*
X151665000Y-72984132D01*
X149648587Y-70967720D01*
X149602001Y-70897999D01*
X149325801Y-70713448D01*
X149082237Y-70665000D01*
X149082233Y-70665000D01*
X149000000Y-70648643D01*
X148917767Y-70665000D01*
X146427405Y-70665000D01*
X146185983Y-70565000D01*
X145814017Y-70565000D01*
X145470365Y-70707345D01*
X145207345Y-70970365D01*
X145190910Y-71010043D01*
X145148587Y-70967720D01*
X145102001Y-70897999D01*
X144825801Y-70713448D01*
X144582237Y-70665000D01*
X144582233Y-70665000D01*
X144500000Y-70648643D01*
X144417767Y-70665000D01*
X141427405Y-70665000D01*
X141185983Y-70565000D01*
X140814017Y-70565000D01*
X140470365Y-70707345D01*
X140207345Y-70970365D01*
X140065000Y-71314017D01*
X140065000Y-71665000D01*
X137345868Y-71665000D01*
X136892656Y-71211788D01*
X136792655Y-70970365D01*
X136529635Y-70707345D01*
X136185983Y-70565000D01*
X135814017Y-70565000D01*
X135470365Y-70707345D01*
X135207345Y-70970365D01*
X135065000Y-71314017D01*
X135065000Y-71685983D01*
X135207345Y-72029635D01*
X135470365Y-72292655D01*
X135711788Y-72392656D01*
X135984132Y-72665000D01*
X132345868Y-72665000D01*
X131835000Y-72154133D01*
X131835000Y-71927405D01*
X131935000Y-71685983D01*
X131935000Y-71314017D01*
X131792655Y-70970365D01*
X131529635Y-70707345D01*
X131185983Y-70565000D01*
X130814017Y-70565000D01*
X130470365Y-70707345D01*
X130207345Y-70970365D01*
X130065000Y-71314017D01*
X130065000Y-71685983D01*
X130165000Y-71927406D01*
X130165000Y-71984133D01*
X129415039Y-71234172D01*
X129435000Y-71185983D01*
X129435000Y-70814017D01*
X129292655Y-70470365D01*
X129029635Y-70207345D01*
X128685983Y-70065000D01*
X128314017Y-70065000D01*
X127970365Y-70207345D01*
X127707345Y-70470365D01*
X127565000Y-70814017D01*
X127565000Y-71185983D01*
X127663705Y-71424278D01*
X127648643Y-71500000D01*
X127665000Y-71582233D01*
X127665000Y-71582237D01*
X127713448Y-71825801D01*
X127898000Y-72102001D01*
X127967718Y-72148585D01*
X130851415Y-75032283D01*
X130897999Y-75102001D01*
X131174199Y-75286552D01*
X131417763Y-75335000D01*
X131500000Y-75351358D01*
X131582237Y-75335000D01*
X142654133Y-75335000D01*
X143351415Y-76032282D01*
X143397999Y-76102001D01*
X143674199Y-76286552D01*
X143917763Y-76335000D01*
X144000000Y-76351358D01*
X144082237Y-76335000D01*
X146654133Y-76335000D01*
X146665000Y-76345867D01*
X146665001Y-93654131D01*
X143967720Y-96351413D01*
X143897999Y-96397999D01*
X143713448Y-96674200D01*
X143665000Y-96917764D01*
X143665000Y-96917767D01*
X143648643Y-97000000D01*
X143665000Y-97082233D01*
X143665001Y-99467455D01*
X143652001Y-99447999D01*
X143582283Y-99401415D01*
X141316367Y-97135500D01*
X141357809Y-97107809D01*
X141498157Y-96897765D01*
X141547440Y-96650000D01*
X141547440Y-94850000D01*
X141498157Y-94602235D01*
X141357809Y-94392191D01*
X141147765Y-94251843D01*
X140900000Y-94202560D01*
X139100000Y-94202560D01*
X138920151Y-94238334D01*
X138494507Y-93812690D01*
X137930330Y-93579000D01*
X137421000Y-93579000D01*
X137421000Y-93069670D01*
X137187310Y-92505493D01*
X136755507Y-92073690D01*
X136466739Y-91954078D01*
X136551310Y-91869507D01*
X136785000Y-91305330D01*
X136785000Y-90694670D01*
X136551310Y-90130493D01*
X136466739Y-90045922D01*
X136755507Y-89926310D01*
X137187310Y-89494507D01*
X137421000Y-88930330D01*
X137421000Y-88421000D01*
X137930330Y-88421000D01*
X138494507Y-88187310D01*
X138926310Y-87755507D01*
X139045922Y-87466739D01*
X139130493Y-87551310D01*
X139694670Y-87785000D01*
X140305330Y-87785000D01*
X140869507Y-87551310D01*
X140954078Y-87466739D01*
X141073690Y-87755507D01*
X141505493Y-88187310D01*
X142069670Y-88421000D01*
X142579000Y-88421000D01*
X142579000Y-88930330D01*
X142812690Y-89494507D01*
X143244493Y-89926310D01*
X143533261Y-90045922D01*
X143448690Y-90130493D01*
X143215000Y-90694670D01*
X143215000Y-91305330D01*
X143448690Y-91869507D01*
X143533261Y-91954078D01*
X143244493Y-92073690D01*
X142812690Y-92505493D01*
X142579000Y-93069670D01*
X142579000Y-93680330D01*
X142812690Y-94244507D01*
X143244493Y-94676310D01*
X143808670Y-94910000D01*
X144419330Y-94910000D01*
X144983507Y-94676310D01*
X145415310Y-94244507D01*
X145649000Y-93680330D01*
X145649000Y-93069670D01*
X145415310Y-92505493D01*
X145330739Y-92420922D01*
X145619507Y-92301310D01*
X146051310Y-91869507D01*
X146285000Y-91305330D01*
X146285000Y-90694670D01*
X146051310Y-90130493D01*
X145619507Y-89698690D01*
X145330739Y-89579078D01*
X145415310Y-89494507D01*
X145649000Y-88930330D01*
X145649000Y-88319670D01*
X145415310Y-87755493D01*
X144983507Y-87323690D01*
X144419330Y-87090000D01*
X143910000Y-87090000D01*
X143910000Y-86580670D01*
X143676310Y-86016493D01*
X143244507Y-85584690D01*
X142680330Y-85351000D01*
X142069670Y-85351000D01*
X141505493Y-85584690D01*
X141420922Y-85669261D01*
X141301310Y-85380493D01*
X140869507Y-84948690D01*
X140305330Y-84715000D01*
X139694670Y-84715000D01*
X139130493Y-84948690D01*
X138698690Y-85380493D01*
X138579078Y-85669261D01*
X138494507Y-85584690D01*
X137930330Y-85351000D01*
X137319670Y-85351000D01*
X136755493Y-85584690D01*
X136323690Y-86016493D01*
X136090000Y-86580670D01*
X136090000Y-87090000D01*
X135580670Y-87090000D01*
X135016493Y-87323690D01*
X134584690Y-87755493D01*
X134351000Y-88319670D01*
X134351000Y-88930330D01*
X134584690Y-89494507D01*
X134669261Y-89579078D01*
X134380493Y-89698690D01*
X133948690Y-90130493D01*
X133715000Y-90694670D01*
X133715000Y-91305330D01*
X133948690Y-91869507D01*
X134380493Y-92301310D01*
X134669261Y-92420922D01*
X134584690Y-92505493D01*
X134351000Y-93069670D01*
X134351000Y-93298569D01*
X134182237Y-93265000D01*
X134182233Y-93265000D01*
X134100000Y-93248643D01*
X134017767Y-93265000D01*
X131197440Y-93265000D01*
X131197440Y-93100000D01*
X131148157Y-92852235D01*
X131007809Y-92642191D01*
X130797765Y-92501843D01*
X130550000Y-92452560D01*
X128850000Y-92452560D01*
X128602235Y-92501843D01*
X128392191Y-92642191D01*
X128251843Y-92852235D01*
X128202560Y-93100000D01*
X128202560Y-95100000D01*
X128251843Y-95347765D01*
X128352185Y-95497936D01*
X128274199Y-95513448D01*
X127997999Y-95697999D01*
X127951416Y-95767716D01*
X127511788Y-96207344D01*
X127270365Y-96307345D01*
X127007345Y-96570365D01*
X126865000Y-96914017D01*
X126865000Y-97285983D01*
X127007345Y-97629635D01*
X127270365Y-97892655D01*
X127614017Y-98035000D01*
X127985983Y-98035000D01*
X128329635Y-97892655D01*
X128592655Y-97629635D01*
X128692656Y-97388212D01*
X128945868Y-97135000D01*
X131402560Y-97135000D01*
X131402560Y-97300000D01*
X131451843Y-97547765D01*
X131592191Y-97757809D01*
X131802235Y-97898157D01*
X132050000Y-97947440D01*
X133750000Y-97947440D01*
X133997765Y-97898157D01*
X134207809Y-97757809D01*
X134348157Y-97547765D01*
X134397440Y-97300000D01*
X134397440Y-95578307D01*
X136851415Y-98032283D01*
X136897999Y-98102001D01*
X137174199Y-98286552D01*
X137417763Y-98335000D01*
X137417766Y-98335000D01*
X137499999Y-98351357D01*
X137582232Y-98335000D01*
X140154133Y-98335000D01*
X141030753Y-99211620D01*
X141022596Y-99214999D01*
X139287289Y-99214999D01*
X139029635Y-98957345D01*
X138685983Y-98815000D01*
X138314017Y-98815000D01*
X137970365Y-98957345D01*
X137707345Y-99220365D01*
X137565000Y-99564017D01*
X137565000Y-99935983D01*
X137707345Y-100279635D01*
X137970365Y-100542655D01*
X138184088Y-100631182D01*
X138197998Y-100652000D01*
X138474198Y-100836551D01*
X138717762Y-100884999D01*
X138799999Y-100901357D01*
X138882236Y-100884999D01*
X141022596Y-100884999D01*
X141264018Y-100984999D01*
X141635984Y-100984999D01*
X141747590Y-100938770D01*
X141701843Y-101007235D01*
X141652560Y-101255000D01*
X141652560Y-101855000D01*
X141701843Y-102102765D01*
X141760132Y-102190000D01*
X141701843Y-102277235D01*
X141652560Y-102525000D01*
X141652560Y-102591572D01*
X140467720Y-103776413D01*
X140397999Y-103822999D01*
X140213448Y-104099200D01*
X140165000Y-104342764D01*
X140165000Y-104342767D01*
X140148643Y-104425000D01*
X140165000Y-104507233D01*
X140165001Y-109654131D01*
X138654133Y-111165000D01*
X137427405Y-111165000D01*
X137236037Y-111085733D01*
X137298157Y-110992765D01*
X137347440Y-110745000D01*
X137347440Y-110145000D01*
X137298157Y-109897235D01*
X137239868Y-109810000D01*
X137298157Y-109722765D01*
X137347440Y-109475000D01*
X137347440Y-108875000D01*
X137298157Y-108627235D01*
X137239868Y-108540000D01*
X137298157Y-108452765D01*
X137347440Y-108205000D01*
X137347440Y-107605000D01*
X137298157Y-107357235D01*
X137239868Y-107270000D01*
X137298157Y-107182765D01*
X137347440Y-106935000D01*
X137347440Y-106335000D01*
X137298157Y-106087235D01*
X137239868Y-106000000D01*
X137298157Y-105912765D01*
X137347440Y-105665000D01*
X137347440Y-105065000D01*
X137334324Y-104999061D01*
X137409017Y-105030000D01*
X137780983Y-105030000D01*
X138124635Y-104887655D01*
X138387655Y-104624635D01*
X138530000Y-104280983D01*
X138530000Y-103909017D01*
X138387655Y-103565365D01*
X138124635Y-103302345D01*
X137780983Y-103160000D01*
X137409017Y-103160000D01*
X137334324Y-103190939D01*
X137347440Y-103125000D01*
X137347440Y-102525000D01*
X137340478Y-102490000D01*
X137630983Y-102490000D01*
X137974635Y-102347655D01*
X138237655Y-102084635D01*
X138380000Y-101740983D01*
X138380000Y-101369017D01*
X138237655Y-101025365D01*
X137974635Y-100762345D01*
X137630983Y-100620000D01*
X137259017Y-100620000D01*
X137032837Y-100713687D01*
X136947765Y-100656843D01*
X136700000Y-100607560D01*
X135200000Y-100607560D01*
X134952235Y-100656843D01*
X134742191Y-100797191D01*
X134601843Y-101007235D01*
X134552560Y-101255000D01*
X134552560Y-101855000D01*
X134579413Y-101990000D01*
X134370869Y-101990000D01*
X134166368Y-101785499D01*
X134207809Y-101757809D01*
X134348157Y-101547765D01*
X134397440Y-101300000D01*
X134397440Y-99300000D01*
X134348157Y-99052235D01*
X134207809Y-98842191D01*
X133997765Y-98701843D01*
X133750000Y-98652560D01*
X132050000Y-98652560D01*
X131802235Y-98701843D01*
X131592191Y-98842191D01*
X131451843Y-99052235D01*
X131402560Y-99300000D01*
X131402560Y-101300000D01*
X131451843Y-101547765D01*
X131592191Y-101757809D01*
X131802235Y-101898157D01*
X132050000Y-101947440D01*
X132097861Y-101947440D01*
X132113448Y-102025800D01*
X132164364Y-102102001D01*
X132298000Y-102302001D01*
X132367718Y-102348585D01*
X133376416Y-103357285D01*
X133422999Y-103427001D01*
X133699199Y-103611552D01*
X133942763Y-103660000D01*
X133942766Y-103660000D01*
X134024999Y-103676357D01*
X134107232Y-103660000D01*
X134579413Y-103660000D01*
X134552560Y-103795000D01*
X134552560Y-104395000D01*
X134579413Y-104530000D01*
X131217237Y-104530000D01*
X131135000Y-104513642D01*
X131052763Y-104530000D01*
X130809199Y-104578448D01*
X130532999Y-104762999D01*
X130486415Y-104832717D01*
X127467718Y-107851415D01*
X127398000Y-107897999D01*
X127351416Y-107967717D01*
X127264643Y-108097582D01*
X127185983Y-108065000D01*
X126814017Y-108065000D01*
X126470365Y-108207345D01*
X126207345Y-108470365D01*
X126065000Y-108814017D01*
X125710000Y-108814017D01*
X125710000Y-104481269D01*
X125718246Y-104498832D01*
X126230633Y-105079000D01*
X126885258Y-105492037D01*
X127629496Y-105704742D01*
X128403520Y-105700013D01*
X129145104Y-105478233D01*
X129794634Y-105057228D01*
X130299895Y-104470844D01*
X130620268Y-103766220D01*
X130730000Y-103000000D01*
X130729185Y-102933300D01*
X130600766Y-102169990D01*
X130263273Y-101473403D01*
X129743836Y-100899539D01*
X129084214Y-100494530D01*
X128337432Y-100290934D01*
X127563524Y-100305118D01*
X126824705Y-100535942D01*
X126180366Y-100964851D01*
X125710000Y-101524418D01*
X125710000Y-90632290D01*
X125970365Y-90892655D01*
X126314017Y-91035000D01*
X126685983Y-91035000D01*
X126927405Y-90935000D01*
X128202560Y-90935000D01*
X128202560Y-91100000D01*
X128251843Y-91347765D01*
X128392191Y-91557809D01*
X128602235Y-91698157D01*
X128850000Y-91747440D01*
X130550000Y-91747440D01*
X130797765Y-91698157D01*
X131007809Y-91557809D01*
X131148157Y-91347765D01*
X131197440Y-91100000D01*
X131197440Y-89100000D01*
X131148157Y-88852235D01*
X131007809Y-88642191D01*
X130797765Y-88501843D01*
X130550000Y-88452560D01*
X128850000Y-88452560D01*
X128602235Y-88501843D01*
X128392191Y-88642191D01*
X128251843Y-88852235D01*
X128202560Y-89100000D01*
X128202560Y-89265000D01*
X126927405Y-89265000D01*
X126685983Y-89165000D01*
X126314017Y-89165000D01*
X125970365Y-89307345D01*
X125710000Y-89567710D01*
X125710000Y-60000000D01*
X128485908Y-60000000D01*
X128601161Y-60579418D01*
X128929375Y-61070625D01*
X129420582Y-61398839D01*
X129853744Y-61485000D01*
X130146256Y-61485000D01*
X130579418Y-61398839D01*
X131070625Y-61070625D01*
X131085096Y-61048967D01*
X131151673Y-61209698D01*
X131330301Y-61388327D01*
X131563690Y-61485000D01*
X132254250Y-61485000D01*
X132413000Y-61326250D01*
X132413000Y-60127000D01*
X132667000Y-60127000D01*
X132667000Y-61326250D01*
X132825750Y-61485000D01*
X133516310Y-61485000D01*
X133749699Y-61388327D01*
X133928327Y-61209698D01*
X134025000Y-60976309D01*
X134025000Y-60650565D01*
X152544741Y-60650565D01*
X152550533Y-61387957D01*
X152772892Y-62091049D01*
X153192158Y-62697677D01*
X153771263Y-63154206D01*
X154459005Y-63420274D01*
X155194579Y-63472355D01*
X155912949Y-63305846D01*
X156550602Y-62935467D01*
X157051160Y-62393967D01*
X157370367Y-61729220D01*
X157480000Y-61000000D01*
X157479694Y-60961046D01*
X157358620Y-60233638D01*
X157241878Y-60000000D01*
X175985908Y-60000000D01*
X176101161Y-60579418D01*
X176429375Y-61070625D01*
X176920582Y-61398839D01*
X177353744Y-61485000D01*
X177646256Y-61485000D01*
X178079418Y-61398839D01*
X178570625Y-61070625D01*
X178585096Y-61048967D01*
X178651673Y-61209698D01*
X178830301Y-61388327D01*
X179063690Y-61485000D01*
X179754250Y-61485000D01*
X179913000Y-61326250D01*
X179913000Y-60127000D01*
X180167000Y-60127000D01*
X180167000Y-61326250D01*
X180325750Y-61485000D01*
X181016310Y-61485000D01*
X181249699Y-61388327D01*
X181428327Y-61209698D01*
X181525000Y-60976309D01*
X181525000Y-60285750D01*
X181366250Y-60127000D01*
X180167000Y-60127000D01*
X179913000Y-60127000D01*
X179893000Y-60127000D01*
X179893000Y-59873000D01*
X179913000Y-59873000D01*
X179913000Y-58673750D01*
X180167000Y-58673750D01*
X180167000Y-59873000D01*
X181366250Y-59873000D01*
X181525000Y-59714250D01*
X181525000Y-59023691D01*
X181428327Y-58790302D01*
X181249699Y-58611673D01*
X181016310Y-58515000D01*
X180325750Y-58515000D01*
X180167000Y-58673750D01*
X179913000Y-58673750D01*
X179754250Y-58515000D01*
X179063690Y-58515000D01*
X178830301Y-58611673D01*
X178651673Y-58790302D01*
X178585096Y-58951033D01*
X178570625Y-58929375D01*
X178079418Y-58601161D01*
X177646256Y-58515000D01*
X177353744Y-58515000D01*
X176920582Y-58601161D01*
X176429375Y-58929375D01*
X176101161Y-59420582D01*
X175985908Y-60000000D01*
X157241878Y-60000000D01*
X157029011Y-59573987D01*
X156520009Y-59040416D01*
X155876618Y-58680099D01*
X155155720Y-58524894D01*
X154421055Y-58588523D01*
X153737577Y-58865360D01*
X153165715Y-59330929D01*
X152756029Y-59944067D01*
X152544741Y-60650565D01*
X134025000Y-60650565D01*
X134025000Y-60285750D01*
X133866250Y-60127000D01*
X132667000Y-60127000D01*
X132413000Y-60127000D01*
X132393000Y-60127000D01*
X132393000Y-59873000D01*
X132413000Y-59873000D01*
X132413000Y-58673750D01*
X132667000Y-58673750D01*
X132667000Y-59873000D01*
X133866250Y-59873000D01*
X134025000Y-59714250D01*
X134025000Y-59023691D01*
X133928327Y-58790302D01*
X133749699Y-58611673D01*
X133516310Y-58515000D01*
X132825750Y-58515000D01*
X132667000Y-58673750D01*
X132413000Y-58673750D01*
X132254250Y-58515000D01*
X131563690Y-58515000D01*
X131330301Y-58611673D01*
X131151673Y-58790302D01*
X131085096Y-58951033D01*
X131070625Y-58929375D01*
X130579418Y-58601161D01*
X130146256Y-58515000D01*
X129853744Y-58515000D01*
X129420582Y-58601161D01*
X128929375Y-58929375D01*
X128601161Y-59420582D01*
X128485908Y-60000000D01*
X125710000Y-60000000D01*
X125710000Y-56710000D01*
X184290000Y-56710000D01*
X184290001Y-125290000D01*
X184290001Y-125290000D01*
G37*
X184290001Y-125290000D02*
X125710000Y-125290000D01*
X125710000Y-108814017D01*
X126065000Y-108814017D01*
X126065000Y-109185983D01*
X126165001Y-109427407D01*
X126165000Y-112417767D01*
X126148643Y-112500000D01*
X126165000Y-112582233D01*
X126165000Y-112582236D01*
X126213448Y-112825800D01*
X126397999Y-113102001D01*
X126467720Y-113148587D01*
X131351415Y-118032283D01*
X131397999Y-118102001D01*
X131674199Y-118286552D01*
X132000000Y-118351358D01*
X132082237Y-118335000D01*
X146837767Y-118335000D01*
X146920000Y-118351357D01*
X147002233Y-118335000D01*
X147002237Y-118335000D01*
X147245801Y-118286552D01*
X147522001Y-118102001D01*
X147568587Y-118032280D01*
X150902560Y-114698309D01*
X150902560Y-114840000D01*
X150951843Y-115087765D01*
X151010132Y-115175000D01*
X150951843Y-115262235D01*
X150902560Y-115510000D01*
X150902560Y-116110000D01*
X150951843Y-116357765D01*
X151092191Y-116567809D01*
X151302235Y-116708157D01*
X151550000Y-116757440D01*
X152516573Y-116757440D01*
X154368814Y-118609683D01*
X153737577Y-118865360D01*
X153165715Y-119330929D01*
X152756029Y-119944067D01*
X152544741Y-120650565D01*
X152550533Y-121387957D01*
X152772892Y-122091049D01*
X153192158Y-122697677D01*
X153771263Y-123154206D01*
X154459005Y-123420274D01*
X155194579Y-123472355D01*
X155912949Y-123305846D01*
X156550602Y-122935467D01*
X157051160Y-122393967D01*
X157370367Y-121729220D01*
X157480000Y-121000000D01*
X157479694Y-120961046D01*
X157358620Y-120233638D01*
X157029011Y-119573987D01*
X156801028Y-119335000D01*
X161154133Y-119335000D01*
X161665000Y-119845868D01*
X161665001Y-122357764D01*
X161648643Y-122440002D01*
X161713448Y-122765802D01*
X161790660Y-122881358D01*
X161898000Y-123042003D01*
X161967718Y-123088587D01*
X162911413Y-124032282D01*
X162957997Y-124102001D01*
X163234197Y-124286552D01*
X163477761Y-124335000D01*
X163559998Y-124351358D01*
X163642235Y-124335000D01*
X165437767Y-124335000D01*
X165520000Y-124351357D01*
X165602233Y-124335000D01*
X165602237Y-124335000D01*
X165845801Y-124286552D01*
X166122001Y-124102001D01*
X166168587Y-124032280D01*
X166742061Y-123458807D01*
X166873744Y-123485000D01*
X167166256Y-123485000D01*
X167599418Y-123398839D01*
X168090625Y-123070625D01*
X168303843Y-122751522D01*
X168364817Y-122881358D01*
X168793076Y-123271645D01*
X169203110Y-123441476D01*
X169433000Y-123320155D01*
X169433000Y-122127000D01*
X169413000Y-122127000D01*
X169413000Y-121873000D01*
X169433000Y-121873000D01*
X169433000Y-121853000D01*
X169687000Y-121853000D01*
X169687000Y-121873000D01*
X169707000Y-121873000D01*
X169707000Y-122127000D01*
X169687000Y-122127000D01*
X169687000Y-123320155D01*
X169916890Y-123441476D01*
X170326924Y-123271645D01*
X170755183Y-122881358D01*
X170816157Y-122751522D01*
X171029375Y-123070625D01*
X171520582Y-123398839D01*
X171953744Y-123485000D01*
X172246256Y-123485000D01*
X172679418Y-123398839D01*
X173170625Y-123070625D01*
X173370000Y-122772239D01*
X173569375Y-123070625D01*
X174060582Y-123398839D01*
X174493744Y-123485000D01*
X174786256Y-123485000D01*
X175219418Y-123398839D01*
X175710625Y-123070625D01*
X176038839Y-122579418D01*
X176154092Y-122000000D01*
X176038839Y-121420582D01*
X175710625Y-120929375D01*
X175412239Y-120730000D01*
X175710625Y-120530625D01*
X176038839Y-120039418D01*
X176154092Y-119460000D01*
X176062593Y-119000000D01*
X178552560Y-119000000D01*
X178552560Y-121000000D01*
X178601843Y-121247765D01*
X178742191Y-121457809D01*
X178952235Y-121598157D01*
X179165001Y-121640478D01*
X179165001Y-122322593D01*
X179065000Y-122564017D01*
X179065000Y-122935983D01*
X179207345Y-123279635D01*
X179470365Y-123542655D01*
X179814017Y-123685000D01*
X180185983Y-123685000D01*
X180529635Y-123542655D01*
X180792655Y-123279635D01*
X180935000Y-122935983D01*
X180935000Y-122564017D01*
X180835000Y-122322595D01*
X180835000Y-121640478D01*
X181047765Y-121598157D01*
X181257809Y-121457809D01*
X181398157Y-121247765D01*
X181447440Y-121000000D01*
X181447440Y-119000000D01*
X181398157Y-118752235D01*
X181257809Y-118542191D01*
X181047765Y-118401843D01*
X180800000Y-118352560D01*
X179200000Y-118352560D01*
X178952235Y-118401843D01*
X178742191Y-118542191D01*
X178601843Y-118752235D01*
X178552560Y-119000000D01*
X176062593Y-119000000D01*
X176038839Y-118880582D01*
X175710625Y-118389375D01*
X175219418Y-118061161D01*
X174786256Y-117975000D01*
X174493744Y-117975000D01*
X174060582Y-118061161D01*
X173569375Y-118389375D01*
X173370000Y-118687761D01*
X173170625Y-118389375D01*
X172679418Y-118061161D01*
X172246256Y-117975000D01*
X171953744Y-117975000D01*
X171520582Y-118061161D01*
X171029375Y-118389375D01*
X170830000Y-118687761D01*
X170630625Y-118389375D01*
X170139418Y-118061161D01*
X169706256Y-117975000D01*
X169413744Y-117975000D01*
X169282061Y-118001193D01*
X167566618Y-116285750D01*
X178565000Y-116285750D01*
X178565000Y-117126309D01*
X178661673Y-117359698D01*
X178840301Y-117538327D01*
X179073690Y-117635000D01*
X179714250Y-117635000D01*
X179873000Y-117476250D01*
X179873000Y-116127000D01*
X180127000Y-116127000D01*
X180127000Y-117476250D01*
X180285750Y-117635000D01*
X180926310Y-117635000D01*
X181159699Y-117538327D01*
X181338327Y-117359698D01*
X181435000Y-117126309D01*
X181435000Y-116285750D01*
X181276250Y-116127000D01*
X180127000Y-116127000D01*
X179873000Y-116127000D01*
X178723750Y-116127000D01*
X178565000Y-116285750D01*
X167566618Y-116285750D01*
X166632283Y-115351416D01*
X166248587Y-114967720D01*
X166202001Y-114897999D01*
X165925801Y-114713448D01*
X165682237Y-114665000D01*
X165682233Y-114665000D01*
X165600000Y-114648643D01*
X165517767Y-114665000D01*
X161515867Y-114665000D01*
X164032283Y-112148585D01*
X164102001Y-112102001D01*
X164286552Y-111825801D01*
X164335000Y-111582237D01*
X164335000Y-111582234D01*
X164351357Y-111500001D01*
X164335000Y-111417768D01*
X164335000Y-110185000D01*
X164552560Y-110185000D01*
X164552560Y-110745000D01*
X164601843Y-110992765D01*
X164742191Y-111202809D01*
X164952235Y-111343157D01*
X165115001Y-111375533D01*
X165115001Y-112067762D01*
X165098643Y-112150000D01*
X165163448Y-112475800D01*
X165208119Y-112542655D01*
X165348000Y-112752001D01*
X165417718Y-112798585D01*
X166051414Y-113432282D01*
X166097999Y-113502001D01*
X166374199Y-113686552D01*
X166617763Y-113735000D01*
X166617766Y-113735000D01*
X166699999Y-113751357D01*
X166782232Y-113735000D01*
X172942710Y-113735000D01*
X172707345Y-113970365D01*
X172565000Y-114314017D01*
X172565000Y-114685983D01*
X172707345Y-115029635D01*
X172970365Y-115292655D01*
X173314017Y-115435000D01*
X173685983Y-115435000D01*
X174029635Y-115292655D01*
X174292655Y-115029635D01*
X174357248Y-114873691D01*
X178565000Y-114873691D01*
X178565000Y-115714250D01*
X178723750Y-115873000D01*
X179873000Y-115873000D01*
X179873000Y-114523750D01*
X180127000Y-114523750D01*
X180127000Y-115873000D01*
X181276250Y-115873000D01*
X181435000Y-115714250D01*
X181435000Y-114873691D01*
X181338327Y-114640302D01*
X181159699Y-114461673D01*
X180926310Y-114365000D01*
X180285750Y-114365000D01*
X180127000Y-114523750D01*
X179873000Y-114523750D01*
X179714250Y-114365000D01*
X179073690Y-114365000D01*
X178840301Y-114461673D01*
X178661673Y-114640302D01*
X178565000Y-114873691D01*
X174357248Y-114873691D01*
X174435000Y-114685983D01*
X174435000Y-114314017D01*
X174292655Y-113970365D01*
X174029635Y-113707345D01*
X173994478Y-113692783D01*
X174025801Y-113686552D01*
X174302001Y-113502001D01*
X174348587Y-113432280D01*
X177479289Y-110301579D01*
X177720365Y-110542655D01*
X177961788Y-110642656D01*
X179357345Y-112038213D01*
X179457345Y-112279635D01*
X179720365Y-112542655D01*
X180064017Y-112685000D01*
X180435983Y-112685000D01*
X180779635Y-112542655D01*
X181042655Y-112279635D01*
X181185000Y-111935983D01*
X181185000Y-111564017D01*
X181042655Y-111220365D01*
X180779635Y-110957345D01*
X180538213Y-110857345D01*
X179142656Y-109461788D01*
X179042655Y-109220365D01*
X178801579Y-108979289D01*
X180032283Y-107748585D01*
X180102001Y-107702001D01*
X180286552Y-107425801D01*
X180335000Y-107182237D01*
X180335000Y-107182236D01*
X180351358Y-107100000D01*
X180335000Y-107017763D01*
X180335000Y-100927405D01*
X180435000Y-100685983D01*
X180435000Y-100314017D01*
X180292655Y-99970365D01*
X180126579Y-99804289D01*
X183032286Y-96898583D01*
X183102001Y-96852001D01*
X183181994Y-96732284D01*
X183286552Y-96575801D01*
X183315099Y-96432284D01*
X183335000Y-96332237D01*
X183335000Y-96332234D01*
X183351357Y-96250001D01*
X183335000Y-96167768D01*
X183335000Y-71927405D01*
X183435000Y-71685983D01*
X183435000Y-71314017D01*
X183292655Y-70970365D01*
X183029635Y-70707345D01*
X182685983Y-70565000D01*
X182314017Y-70565000D01*
X181970365Y-70707345D01*
X181707345Y-70970365D01*
X181565000Y-71314017D01*
X181565000Y-71685983D01*
X181665000Y-71927405D01*
X181665000Y-72332236D01*
X181665001Y-72332241D01*
X181665001Y-72484133D01*
X180148587Y-70967720D01*
X180102001Y-70897999D01*
X179825801Y-70713448D01*
X179582237Y-70665000D01*
X179582233Y-70665000D01*
X179500000Y-70648643D01*
X179417767Y-70665000D01*
X176427405Y-70665000D01*
X176185983Y-70565000D01*
X175814017Y-70565000D01*
X175470365Y-70707345D01*
X175207345Y-70970365D01*
X175190910Y-71010043D01*
X175148587Y-70967720D01*
X175102001Y-70897999D01*
X174825801Y-70713448D01*
X174582237Y-70665000D01*
X174582233Y-70665000D01*
X174500000Y-70648643D01*
X174417767Y-70665000D01*
X171427405Y-70665000D01*
X171185983Y-70565000D01*
X170814017Y-70565000D01*
X170470365Y-70707345D01*
X170207345Y-70970365D01*
X170065000Y-71314017D01*
X170065000Y-71665000D01*
X167345868Y-71665000D01*
X166892656Y-71211788D01*
X166792655Y-70970365D01*
X166529635Y-70707345D01*
X166185983Y-70565000D01*
X165814017Y-70565000D01*
X165470365Y-70707345D01*
X165207345Y-70970365D01*
X165065000Y-71314017D01*
X165065000Y-71685983D01*
X165207345Y-72029635D01*
X165470365Y-72292655D01*
X165711788Y-72392656D01*
X165984132Y-72665000D01*
X162345868Y-72665000D01*
X161835000Y-72154133D01*
X161835000Y-71927405D01*
X161935000Y-71685983D01*
X161935000Y-71314017D01*
X161792655Y-70970365D01*
X161529635Y-70707345D01*
X161185983Y-70565000D01*
X160814017Y-70565000D01*
X160470365Y-70707345D01*
X160207345Y-70970365D01*
X160065000Y-71314017D01*
X160065000Y-71685983D01*
X160165000Y-71927406D01*
X160165000Y-71984133D01*
X159415039Y-71234172D01*
X159435000Y-71185983D01*
X159435000Y-70814017D01*
X159292655Y-70470365D01*
X159029635Y-70207345D01*
X158685983Y-70065000D01*
X158314017Y-70065000D01*
X157970365Y-70207345D01*
X157707345Y-70470365D01*
X157565000Y-70814017D01*
X157565000Y-71185983D01*
X157663705Y-71424278D01*
X157648643Y-71500000D01*
X157665000Y-71582233D01*
X157665000Y-71582236D01*
X157713448Y-71825800D01*
X157897999Y-72102001D01*
X157967720Y-72148587D01*
X158351416Y-72532283D01*
X160851415Y-75032283D01*
X160897999Y-75102001D01*
X161174199Y-75286552D01*
X161500000Y-75351358D01*
X161582237Y-75335000D01*
X172654133Y-75335000D01*
X173351415Y-76032282D01*
X173397999Y-76102001D01*
X173674199Y-76286552D01*
X173917763Y-76335000D01*
X174000000Y-76351358D01*
X174082237Y-76335000D01*
X176654133Y-76335000D01*
X176665000Y-76345867D01*
X176665000Y-77082236D01*
X176665001Y-77082241D01*
X176665000Y-78582236D01*
X176665001Y-78582241D01*
X176665000Y-94154132D01*
X173967718Y-96851415D01*
X173898000Y-96897999D01*
X173851417Y-96967716D01*
X173851416Y-96967717D01*
X173713448Y-97174200D01*
X173648643Y-97500000D01*
X173665001Y-97582238D01*
X173665001Y-99267454D01*
X173652001Y-99247999D01*
X173582283Y-99201415D01*
X171410227Y-97029360D01*
X171498157Y-96897765D01*
X171547440Y-96650000D01*
X171547440Y-94850000D01*
X171498157Y-94602235D01*
X171357809Y-94392191D01*
X171147765Y-94251843D01*
X170900000Y-94202560D01*
X169100000Y-94202560D01*
X168920151Y-94238334D01*
X168494507Y-93812690D01*
X167930330Y-93579000D01*
X167421000Y-93579000D01*
X167421000Y-93069670D01*
X167187310Y-92505493D01*
X166755507Y-92073690D01*
X166466739Y-91954078D01*
X166551310Y-91869507D01*
X166785000Y-91305330D01*
X166785000Y-90694670D01*
X166551310Y-90130493D01*
X166466739Y-90045922D01*
X166755507Y-89926310D01*
X167187310Y-89494507D01*
X167421000Y-88930330D01*
X167421000Y-88421000D01*
X167930330Y-88421000D01*
X168494507Y-88187310D01*
X168926310Y-87755507D01*
X169045922Y-87466739D01*
X169130493Y-87551310D01*
X169694670Y-87785000D01*
X170305330Y-87785000D01*
X170869507Y-87551310D01*
X170954078Y-87466739D01*
X171073690Y-87755507D01*
X171505493Y-88187310D01*
X172069670Y-88421000D01*
X172579000Y-88421000D01*
X172579000Y-88930330D01*
X172812690Y-89494507D01*
X173244493Y-89926310D01*
X173533261Y-90045922D01*
X173448690Y-90130493D01*
X173215000Y-90694670D01*
X173215000Y-91305330D01*
X173448690Y-91869507D01*
X173533261Y-91954078D01*
X173244493Y-92073690D01*
X172812690Y-92505493D01*
X172579000Y-93069670D01*
X172579000Y-93680330D01*
X172812690Y-94244507D01*
X173244493Y-94676310D01*
X173808670Y-94910000D01*
X174419330Y-94910000D01*
X174983507Y-94676310D01*
X175415310Y-94244507D01*
X175649000Y-93680330D01*
X175649000Y-93069670D01*
X175415310Y-92505493D01*
X175330739Y-92420922D01*
X175619507Y-92301310D01*
X176051310Y-91869507D01*
X176285000Y-91305330D01*
X176285000Y-90694670D01*
X176051310Y-90130493D01*
X175619507Y-89698690D01*
X175330739Y-89579078D01*
X175415310Y-89494507D01*
X175649000Y-88930330D01*
X175649000Y-88319670D01*
X175415310Y-87755493D01*
X174983507Y-87323690D01*
X174419330Y-87090000D01*
X173910000Y-87090000D01*
X173910000Y-86580670D01*
X173676310Y-86016493D01*
X173244507Y-85584690D01*
X172680330Y-85351000D01*
X172069670Y-85351000D01*
X171505493Y-85584690D01*
X171420922Y-85669261D01*
X171301310Y-85380493D01*
X170869507Y-84948690D01*
X170305330Y-84715000D01*
X169694670Y-84715000D01*
X169130493Y-84948690D01*
X168698690Y-85380493D01*
X168579078Y-85669261D01*
X168494507Y-85584690D01*
X167930330Y-85351000D01*
X167319670Y-85351000D01*
X166755493Y-85584690D01*
X166323690Y-86016493D01*
X166090000Y-86580670D01*
X166090000Y-87090000D01*
X165580670Y-87090000D01*
X165016493Y-87323690D01*
X164584690Y-87755493D01*
X164351000Y-88319670D01*
X164351000Y-88930330D01*
X164584690Y-89494507D01*
X164669261Y-89579078D01*
X164380493Y-89698690D01*
X163948690Y-90130493D01*
X163715000Y-90694670D01*
X163715000Y-91305330D01*
X163948690Y-91869507D01*
X164380493Y-92301310D01*
X164669261Y-92420922D01*
X164584690Y-92505493D01*
X164351000Y-93069670D01*
X164351000Y-93298569D01*
X164182237Y-93265000D01*
X164182233Y-93265000D01*
X164100000Y-93248643D01*
X164017767Y-93265000D01*
X161197440Y-93265000D01*
X161197440Y-93100000D01*
X161148157Y-92852235D01*
X161007809Y-92642191D01*
X160797765Y-92501843D01*
X160550000Y-92452560D01*
X158850000Y-92452560D01*
X158602235Y-92501843D01*
X158392191Y-92642191D01*
X158251843Y-92852235D01*
X158202560Y-93100000D01*
X158202560Y-95087915D01*
X158074199Y-95113448D01*
X157797999Y-95297999D01*
X157751414Y-95367718D01*
X157267718Y-95851415D01*
X157198000Y-95897999D01*
X157013448Y-96174199D01*
X156965000Y-96417763D01*
X156965000Y-96417767D01*
X156948643Y-96500000D01*
X156965000Y-96582233D01*
X156965000Y-96672595D01*
X156865000Y-96914017D01*
X156865000Y-97285983D01*
X157007345Y-97629635D01*
X157270365Y-97892655D01*
X157614017Y-98035000D01*
X157985983Y-98035000D01*
X158329635Y-97892655D01*
X158592655Y-97629635D01*
X158735000Y-97285983D01*
X158735000Y-96914017D01*
X158685750Y-96795117D01*
X158745868Y-96735000D01*
X161402560Y-96735000D01*
X161402560Y-97300000D01*
X161451843Y-97547765D01*
X161592191Y-97757809D01*
X161802235Y-97898157D01*
X162050000Y-97947440D01*
X163750000Y-97947440D01*
X163997765Y-97898157D01*
X164207809Y-97757809D01*
X164348157Y-97547765D01*
X164397440Y-97300000D01*
X164397440Y-95578307D01*
X166851415Y-98032283D01*
X166897999Y-98102001D01*
X167174199Y-98286552D01*
X167417763Y-98335000D01*
X167417766Y-98335000D01*
X167499999Y-98351357D01*
X167582232Y-98335000D01*
X170354133Y-98335000D01*
X172215001Y-100195869D01*
X172215001Y-100624467D01*
X172052235Y-100656843D01*
X171842191Y-100797191D01*
X171701843Y-101007235D01*
X171652560Y-101255000D01*
X171652560Y-101855000D01*
X171701843Y-102102765D01*
X171760132Y-102190000D01*
X171701843Y-102277235D01*
X171652560Y-102525000D01*
X171652560Y-102591572D01*
X170467718Y-103776415D01*
X170398000Y-103822999D01*
X170351416Y-103892717D01*
X170213448Y-104099200D01*
X170148643Y-104425000D01*
X170165001Y-104507238D01*
X170165000Y-109654132D01*
X168654133Y-111165000D01*
X167427405Y-111165000D01*
X167236037Y-111085733D01*
X167298157Y-110992765D01*
X167347440Y-110745000D01*
X167347440Y-110145000D01*
X167298157Y-109897235D01*
X167239868Y-109810000D01*
X167298157Y-109722765D01*
X167347440Y-109475000D01*
X167347440Y-108875000D01*
X167298157Y-108627235D01*
X167239868Y-108540000D01*
X167298157Y-108452765D01*
X167347440Y-108205000D01*
X167347440Y-107605000D01*
X167298157Y-107357235D01*
X167239868Y-107270000D01*
X167298157Y-107182765D01*
X167347440Y-106935000D01*
X167347440Y-106335000D01*
X167298157Y-106087235D01*
X167239868Y-106000000D01*
X167298157Y-105912765D01*
X167347440Y-105665000D01*
X167347440Y-105065000D01*
X167341473Y-105035000D01*
X167635983Y-105035000D01*
X167979635Y-104892655D01*
X168242655Y-104629635D01*
X168385000Y-104285983D01*
X168385000Y-103914017D01*
X168242655Y-103570365D01*
X167979635Y-103307345D01*
X167635983Y-103165000D01*
X167339484Y-103165000D01*
X167347440Y-103125000D01*
X167347440Y-102525000D01*
X167329538Y-102435000D01*
X167685983Y-102435000D01*
X168029635Y-102292655D01*
X168292655Y-102029635D01*
X168435000Y-101685983D01*
X168435000Y-101314017D01*
X168292655Y-100970365D01*
X168029635Y-100707345D01*
X167685983Y-100565000D01*
X167314017Y-100565000D01*
X167003071Y-100693798D01*
X166947765Y-100656843D01*
X166700000Y-100607560D01*
X165200000Y-100607560D01*
X164952235Y-100656843D01*
X164742191Y-100797191D01*
X164601843Y-101007235D01*
X164552560Y-101255000D01*
X164552560Y-101855000D01*
X164579413Y-101990000D01*
X164370869Y-101990000D01*
X164166368Y-101785499D01*
X164207809Y-101757809D01*
X164348157Y-101547765D01*
X164397440Y-101300000D01*
X164397440Y-99300000D01*
X164348157Y-99052235D01*
X164207809Y-98842191D01*
X163997765Y-98701843D01*
X163750000Y-98652560D01*
X162050000Y-98652560D01*
X161802235Y-98701843D01*
X161592191Y-98842191D01*
X161451843Y-99052235D01*
X161402560Y-99300000D01*
X161402560Y-101300000D01*
X161451843Y-101547765D01*
X161592191Y-101757809D01*
X161802235Y-101898157D01*
X162050000Y-101947440D01*
X162097861Y-101947440D01*
X162113448Y-102025800D01*
X162164364Y-102102001D01*
X162298000Y-102302001D01*
X162367718Y-102348585D01*
X163376416Y-103357285D01*
X163422999Y-103427001D01*
X163699199Y-103611552D01*
X163942763Y-103660000D01*
X163942766Y-103660000D01*
X164024999Y-103676357D01*
X164107232Y-103660000D01*
X164579413Y-103660000D01*
X164552560Y-103795000D01*
X164552560Y-104395000D01*
X164584678Y-104556472D01*
X164578806Y-104557640D01*
X164542655Y-104470365D01*
X164279635Y-104207345D01*
X163935983Y-104065000D01*
X163564017Y-104065000D01*
X163322595Y-104165000D01*
X162177405Y-104165000D01*
X161935983Y-104065000D01*
X161564017Y-104065000D01*
X161220365Y-104207345D01*
X160957345Y-104470365D01*
X160815000Y-104814017D01*
X160815000Y-105185983D01*
X160957345Y-105529635D01*
X161220365Y-105792655D01*
X161564017Y-105935000D01*
X161935983Y-105935000D01*
X162177405Y-105835000D01*
X163149132Y-105835000D01*
X160967718Y-108016415D01*
X160898000Y-108062999D01*
X160829845Y-108165000D01*
X160720159Y-108329156D01*
X160685983Y-108315000D01*
X160685000Y-108315000D01*
X160685000Y-108064017D01*
X160542655Y-107720365D01*
X160279635Y-107457345D01*
X159935983Y-107315000D01*
X159564017Y-107315000D01*
X159322595Y-107415000D01*
X158882081Y-107415000D01*
X158697765Y-107291843D01*
X158450000Y-107242560D01*
X156950000Y-107242560D01*
X156702235Y-107291843D01*
X156492191Y-107432191D01*
X156351843Y-107642235D01*
X156302560Y-107890000D01*
X156302560Y-108490000D01*
X156329413Y-108625000D01*
X155677405Y-108625000D01*
X155435983Y-108525000D01*
X155064017Y-108525000D01*
X154994615Y-108553747D01*
X154098587Y-107657720D01*
X154052001Y-107587999D01*
X153775801Y-107403448D01*
X153532237Y-107355000D01*
X153532233Y-107355000D01*
X153450000Y-107338643D01*
X153386661Y-107351242D01*
X153297765Y-107291843D01*
X153050000Y-107242560D01*
X151550000Y-107242560D01*
X151302235Y-107291843D01*
X151213339Y-107351242D01*
X151149999Y-107338643D01*
X151067766Y-107355000D01*
X151067763Y-107355000D01*
X150824199Y-107403448D01*
X150547999Y-107587999D01*
X150501413Y-107657720D01*
X150494133Y-107665000D01*
X150427405Y-107665000D01*
X150185983Y-107565000D01*
X150126724Y-107565000D01*
X150286552Y-107325801D01*
X150335000Y-107082237D01*
X150351358Y-107000000D01*
X150335000Y-106917763D01*
X150335000Y-103033352D01*
X155270204Y-103033352D01*
X155389288Y-103798175D01*
X155718246Y-104498832D01*
X156230633Y-105079000D01*
X156885258Y-105492037D01*
X157629496Y-105704742D01*
X158403520Y-105700013D01*
X159145104Y-105478233D01*
X159794634Y-105057228D01*
X160299895Y-104470844D01*
X160620268Y-103766220D01*
X160730000Y-103000000D01*
X160729185Y-102933300D01*
X160600766Y-102169990D01*
X160263273Y-101473403D01*
X159743836Y-100899539D01*
X159084214Y-100494530D01*
X158337432Y-100290934D01*
X157563524Y-100305118D01*
X156824705Y-100535942D01*
X156180366Y-100964851D01*
X155682307Y-101557363D01*
X155370566Y-102265849D01*
X155270204Y-103033352D01*
X150335000Y-103033352D01*
X150335000Y-100927405D01*
X150435000Y-100685983D01*
X150435000Y-100314017D01*
X150292655Y-99970365D01*
X150101579Y-99779289D01*
X153032283Y-96848585D01*
X153102001Y-96802001D01*
X153286552Y-96525801D01*
X153335000Y-96282237D01*
X153335000Y-96282234D01*
X153351357Y-96200001D01*
X153335000Y-96117768D01*
X153335000Y-89914017D01*
X155565000Y-89914017D01*
X155565000Y-90285983D01*
X155707345Y-90629635D01*
X155970365Y-90892655D01*
X156314017Y-91035000D01*
X156685983Y-91035000D01*
X156927405Y-90935000D01*
X158202560Y-90935000D01*
X158202560Y-91100000D01*
X158251843Y-91347765D01*
X158392191Y-91557809D01*
X158602235Y-91698157D01*
X158850000Y-91747440D01*
X160550000Y-91747440D01*
X160797765Y-91698157D01*
X161007809Y-91557809D01*
X161148157Y-91347765D01*
X161197440Y-91100000D01*
X161197440Y-89100000D01*
X161148157Y-88852235D01*
X161007809Y-88642191D01*
X160797765Y-88501843D01*
X160550000Y-88452560D01*
X158850000Y-88452560D01*
X158602235Y-88501843D01*
X158392191Y-88642191D01*
X158251843Y-88852235D01*
X158202560Y-89100000D01*
X158202560Y-89265000D01*
X156927405Y-89265000D01*
X156685983Y-89165000D01*
X156314017Y-89165000D01*
X155970365Y-89307345D01*
X155707345Y-89570365D01*
X155565000Y-89914017D01*
X153335000Y-89914017D01*
X153335000Y-71927405D01*
X153435000Y-71685983D01*
X153435000Y-71314017D01*
X153292655Y-70970365D01*
X153029635Y-70707345D01*
X152685983Y-70565000D01*
X152314017Y-70565000D01*
X151970365Y-70707345D01*
X151707345Y-70970365D01*
X151565000Y-71314017D01*
X151565000Y-71685983D01*
X151665000Y-71927405D01*
X151665000Y-72984132D01*
X149648587Y-70967720D01*
X149602001Y-70897999D01*
X149325801Y-70713448D01*
X149082237Y-70665000D01*
X149082233Y-70665000D01*
X149000000Y-70648643D01*
X148917767Y-70665000D01*
X146427405Y-70665000D01*
X146185983Y-70565000D01*
X145814017Y-70565000D01*
X145470365Y-70707345D01*
X145207345Y-70970365D01*
X145190910Y-71010043D01*
X145148587Y-70967720D01*
X145102001Y-70897999D01*
X144825801Y-70713448D01*
X144582237Y-70665000D01*
X144582233Y-70665000D01*
X144500000Y-70648643D01*
X144417767Y-70665000D01*
X141427405Y-70665000D01*
X141185983Y-70565000D01*
X140814017Y-70565000D01*
X140470365Y-70707345D01*
X140207345Y-70970365D01*
X140065000Y-71314017D01*
X140065000Y-71665000D01*
X137345868Y-71665000D01*
X136892656Y-71211788D01*
X136792655Y-70970365D01*
X136529635Y-70707345D01*
X136185983Y-70565000D01*
X135814017Y-70565000D01*
X135470365Y-70707345D01*
X135207345Y-70970365D01*
X135065000Y-71314017D01*
X135065000Y-71685983D01*
X135207345Y-72029635D01*
X135470365Y-72292655D01*
X135711788Y-72392656D01*
X135984132Y-72665000D01*
X132345868Y-72665000D01*
X131835000Y-72154133D01*
X131835000Y-71927405D01*
X131935000Y-71685983D01*
X131935000Y-71314017D01*
X131792655Y-70970365D01*
X131529635Y-70707345D01*
X131185983Y-70565000D01*
X130814017Y-70565000D01*
X130470365Y-70707345D01*
X130207345Y-70970365D01*
X130065000Y-71314017D01*
X130065000Y-71685983D01*
X130165000Y-71927406D01*
X130165000Y-71984133D01*
X129415039Y-71234172D01*
X129435000Y-71185983D01*
X129435000Y-70814017D01*
X129292655Y-70470365D01*
X129029635Y-70207345D01*
X128685983Y-70065000D01*
X128314017Y-70065000D01*
X127970365Y-70207345D01*
X127707345Y-70470365D01*
X127565000Y-70814017D01*
X127565000Y-71185983D01*
X127663705Y-71424278D01*
X127648643Y-71500000D01*
X127665000Y-71582233D01*
X127665000Y-71582237D01*
X127713448Y-71825801D01*
X127898000Y-72102001D01*
X127967718Y-72148585D01*
X130851415Y-75032283D01*
X130897999Y-75102001D01*
X131174199Y-75286552D01*
X131417763Y-75335000D01*
X131500000Y-75351358D01*
X131582237Y-75335000D01*
X142654133Y-75335000D01*
X143351415Y-76032282D01*
X143397999Y-76102001D01*
X143674199Y-76286552D01*
X143917763Y-76335000D01*
X144000000Y-76351358D01*
X144082237Y-76335000D01*
X146654133Y-76335000D01*
X146665000Y-76345867D01*
X146665001Y-93654131D01*
X143967720Y-96351413D01*
X143897999Y-96397999D01*
X143713448Y-96674200D01*
X143665000Y-96917764D01*
X143665000Y-96917767D01*
X143648643Y-97000000D01*
X143665000Y-97082233D01*
X143665001Y-99467455D01*
X143652001Y-99447999D01*
X143582283Y-99401415D01*
X141316367Y-97135500D01*
X141357809Y-97107809D01*
X141498157Y-96897765D01*
X141547440Y-96650000D01*
X141547440Y-94850000D01*
X141498157Y-94602235D01*
X141357809Y-94392191D01*
X141147765Y-94251843D01*
X140900000Y-94202560D01*
X139100000Y-94202560D01*
X138920151Y-94238334D01*
X138494507Y-93812690D01*
X137930330Y-93579000D01*
X137421000Y-93579000D01*
X137421000Y-93069670D01*
X137187310Y-92505493D01*
X136755507Y-92073690D01*
X136466739Y-91954078D01*
X136551310Y-91869507D01*
X136785000Y-91305330D01*
X136785000Y-90694670D01*
X136551310Y-90130493D01*
X136466739Y-90045922D01*
X136755507Y-89926310D01*
X137187310Y-89494507D01*
X137421000Y-88930330D01*
X137421000Y-88421000D01*
X137930330Y-88421000D01*
X138494507Y-88187310D01*
X138926310Y-87755507D01*
X139045922Y-87466739D01*
X139130493Y-87551310D01*
X139694670Y-87785000D01*
X140305330Y-87785000D01*
X140869507Y-87551310D01*
X140954078Y-87466739D01*
X141073690Y-87755507D01*
X141505493Y-88187310D01*
X142069670Y-88421000D01*
X142579000Y-88421000D01*
X142579000Y-88930330D01*
X142812690Y-89494507D01*
X143244493Y-89926310D01*
X143533261Y-90045922D01*
X143448690Y-90130493D01*
X143215000Y-90694670D01*
X143215000Y-91305330D01*
X143448690Y-91869507D01*
X143533261Y-91954078D01*
X143244493Y-92073690D01*
X142812690Y-92505493D01*
X142579000Y-93069670D01*
X142579000Y-93680330D01*
X142812690Y-94244507D01*
X143244493Y-94676310D01*
X143808670Y-94910000D01*
X144419330Y-94910000D01*
X144983507Y-94676310D01*
X145415310Y-94244507D01*
X145649000Y-93680330D01*
X145649000Y-93069670D01*
X145415310Y-92505493D01*
X145330739Y-92420922D01*
X145619507Y-92301310D01*
X146051310Y-91869507D01*
X146285000Y-91305330D01*
X146285000Y-90694670D01*
X146051310Y-90130493D01*
X145619507Y-89698690D01*
X145330739Y-89579078D01*
X145415310Y-89494507D01*
X145649000Y-88930330D01*
X145649000Y-88319670D01*
X145415310Y-87755493D01*
X144983507Y-87323690D01*
X144419330Y-87090000D01*
X143910000Y-87090000D01*
X143910000Y-86580670D01*
X143676310Y-86016493D01*
X143244507Y-85584690D01*
X142680330Y-85351000D01*
X142069670Y-85351000D01*
X141505493Y-85584690D01*
X141420922Y-85669261D01*
X141301310Y-85380493D01*
X140869507Y-84948690D01*
X140305330Y-84715000D01*
X139694670Y-84715000D01*
X139130493Y-84948690D01*
X138698690Y-85380493D01*
X138579078Y-85669261D01*
X138494507Y-85584690D01*
X137930330Y-85351000D01*
X137319670Y-85351000D01*
X136755493Y-85584690D01*
X136323690Y-86016493D01*
X136090000Y-86580670D01*
X136090000Y-87090000D01*
X135580670Y-87090000D01*
X135016493Y-87323690D01*
X134584690Y-87755493D01*
X134351000Y-88319670D01*
X134351000Y-88930330D01*
X134584690Y-89494507D01*
X134669261Y-89579078D01*
X134380493Y-89698690D01*
X133948690Y-90130493D01*
X133715000Y-90694670D01*
X133715000Y-91305330D01*
X133948690Y-91869507D01*
X134380493Y-92301310D01*
X134669261Y-92420922D01*
X134584690Y-92505493D01*
X134351000Y-93069670D01*
X134351000Y-93298569D01*
X134182237Y-93265000D01*
X134182233Y-93265000D01*
X134100000Y-93248643D01*
X134017767Y-93265000D01*
X131197440Y-93265000D01*
X131197440Y-93100000D01*
X131148157Y-92852235D01*
X131007809Y-92642191D01*
X130797765Y-92501843D01*
X130550000Y-92452560D01*
X128850000Y-92452560D01*
X128602235Y-92501843D01*
X128392191Y-92642191D01*
X128251843Y-92852235D01*
X128202560Y-93100000D01*
X128202560Y-95100000D01*
X128251843Y-95347765D01*
X128352185Y-95497936D01*
X128274199Y-95513448D01*
X127997999Y-95697999D01*
X127951416Y-95767716D01*
X127511788Y-96207344D01*
X127270365Y-96307345D01*
X127007345Y-96570365D01*
X126865000Y-96914017D01*
X126865000Y-97285983D01*
X127007345Y-97629635D01*
X127270365Y-97892655D01*
X127614017Y-98035000D01*
X127985983Y-98035000D01*
X128329635Y-97892655D01*
X128592655Y-97629635D01*
X128692656Y-97388212D01*
X128945868Y-97135000D01*
X131402560Y-97135000D01*
X131402560Y-97300000D01*
X131451843Y-97547765D01*
X131592191Y-97757809D01*
X131802235Y-97898157D01*
X132050000Y-97947440D01*
X133750000Y-97947440D01*
X133997765Y-97898157D01*
X134207809Y-97757809D01*
X134348157Y-97547765D01*
X134397440Y-97300000D01*
X134397440Y-95578307D01*
X136851415Y-98032283D01*
X136897999Y-98102001D01*
X137174199Y-98286552D01*
X137417763Y-98335000D01*
X137417766Y-98335000D01*
X137499999Y-98351357D01*
X137582232Y-98335000D01*
X140154133Y-98335000D01*
X141030753Y-99211620D01*
X141022596Y-99214999D01*
X139287289Y-99214999D01*
X139029635Y-98957345D01*
X138685983Y-98815000D01*
X138314017Y-98815000D01*
X137970365Y-98957345D01*
X137707345Y-99220365D01*
X137565000Y-99564017D01*
X137565000Y-99935983D01*
X137707345Y-100279635D01*
X137970365Y-100542655D01*
X138184088Y-100631182D01*
X138197998Y-100652000D01*
X138474198Y-100836551D01*
X138717762Y-100884999D01*
X138799999Y-100901357D01*
X138882236Y-100884999D01*
X141022596Y-100884999D01*
X141264018Y-100984999D01*
X141635984Y-100984999D01*
X141747590Y-100938770D01*
X141701843Y-101007235D01*
X141652560Y-101255000D01*
X141652560Y-101855000D01*
X141701843Y-102102765D01*
X141760132Y-102190000D01*
X141701843Y-102277235D01*
X141652560Y-102525000D01*
X141652560Y-102591572D01*
X140467720Y-103776413D01*
X140397999Y-103822999D01*
X140213448Y-104099200D01*
X140165000Y-104342764D01*
X140165000Y-104342767D01*
X140148643Y-104425000D01*
X140165000Y-104507233D01*
X140165001Y-109654131D01*
X138654133Y-111165000D01*
X137427405Y-111165000D01*
X137236037Y-111085733D01*
X137298157Y-110992765D01*
X137347440Y-110745000D01*
X137347440Y-110145000D01*
X137298157Y-109897235D01*
X137239868Y-109810000D01*
X137298157Y-109722765D01*
X137347440Y-109475000D01*
X137347440Y-108875000D01*
X137298157Y-108627235D01*
X137239868Y-108540000D01*
X137298157Y-108452765D01*
X137347440Y-108205000D01*
X137347440Y-107605000D01*
X137298157Y-107357235D01*
X137239868Y-107270000D01*
X137298157Y-107182765D01*
X137347440Y-106935000D01*
X137347440Y-106335000D01*
X137298157Y-106087235D01*
X137239868Y-106000000D01*
X137298157Y-105912765D01*
X137347440Y-105665000D01*
X137347440Y-105065000D01*
X137334324Y-104999061D01*
X137409017Y-105030000D01*
X137780983Y-105030000D01*
X138124635Y-104887655D01*
X138387655Y-104624635D01*
X138530000Y-104280983D01*
X138530000Y-103909017D01*
X138387655Y-103565365D01*
X138124635Y-103302345D01*
X137780983Y-103160000D01*
X137409017Y-103160000D01*
X137334324Y-103190939D01*
X137347440Y-103125000D01*
X137347440Y-102525000D01*
X137340478Y-102490000D01*
X137630983Y-102490000D01*
X137974635Y-102347655D01*
X138237655Y-102084635D01*
X138380000Y-101740983D01*
X138380000Y-101369017D01*
X138237655Y-101025365D01*
X137974635Y-100762345D01*
X137630983Y-100620000D01*
X137259017Y-100620000D01*
X137032837Y-100713687D01*
X136947765Y-100656843D01*
X136700000Y-100607560D01*
X135200000Y-100607560D01*
X134952235Y-100656843D01*
X134742191Y-100797191D01*
X134601843Y-101007235D01*
X134552560Y-101255000D01*
X134552560Y-101855000D01*
X134579413Y-101990000D01*
X134370869Y-101990000D01*
X134166368Y-101785499D01*
X134207809Y-101757809D01*
X134348157Y-101547765D01*
X134397440Y-101300000D01*
X134397440Y-99300000D01*
X134348157Y-99052235D01*
X134207809Y-98842191D01*
X133997765Y-98701843D01*
X133750000Y-98652560D01*
X132050000Y-98652560D01*
X131802235Y-98701843D01*
X131592191Y-98842191D01*
X131451843Y-99052235D01*
X131402560Y-99300000D01*
X131402560Y-101300000D01*
X131451843Y-101547765D01*
X131592191Y-101757809D01*
X131802235Y-101898157D01*
X132050000Y-101947440D01*
X132097861Y-101947440D01*
X132113448Y-102025800D01*
X132164364Y-102102001D01*
X132298000Y-102302001D01*
X132367718Y-102348585D01*
X133376416Y-103357285D01*
X133422999Y-103427001D01*
X133699199Y-103611552D01*
X133942763Y-103660000D01*
X133942766Y-103660000D01*
X134024999Y-103676357D01*
X134107232Y-103660000D01*
X134579413Y-103660000D01*
X134552560Y-103795000D01*
X134552560Y-104395000D01*
X134579413Y-104530000D01*
X131217237Y-104530000D01*
X131135000Y-104513642D01*
X131052763Y-104530000D01*
X130809199Y-104578448D01*
X130532999Y-104762999D01*
X130486415Y-104832717D01*
X127467718Y-107851415D01*
X127398000Y-107897999D01*
X127351416Y-107967717D01*
X127264643Y-108097582D01*
X127185983Y-108065000D01*
X126814017Y-108065000D01*
X126470365Y-108207345D01*
X126207345Y-108470365D01*
X126065000Y-108814017D01*
X125710000Y-108814017D01*
X125710000Y-104481269D01*
X125718246Y-104498832D01*
X126230633Y-105079000D01*
X126885258Y-105492037D01*
X127629496Y-105704742D01*
X128403520Y-105700013D01*
X129145104Y-105478233D01*
X129794634Y-105057228D01*
X130299895Y-104470844D01*
X130620268Y-103766220D01*
X130730000Y-103000000D01*
X130729185Y-102933300D01*
X130600766Y-102169990D01*
X130263273Y-101473403D01*
X129743836Y-100899539D01*
X129084214Y-100494530D01*
X128337432Y-100290934D01*
X127563524Y-100305118D01*
X126824705Y-100535942D01*
X126180366Y-100964851D01*
X125710000Y-101524418D01*
X125710000Y-90632290D01*
X125970365Y-90892655D01*
X126314017Y-91035000D01*
X126685983Y-91035000D01*
X126927405Y-90935000D01*
X128202560Y-90935000D01*
X128202560Y-91100000D01*
X128251843Y-91347765D01*
X128392191Y-91557809D01*
X128602235Y-91698157D01*
X128850000Y-91747440D01*
X130550000Y-91747440D01*
X130797765Y-91698157D01*
X131007809Y-91557809D01*
X131148157Y-91347765D01*
X131197440Y-91100000D01*
X131197440Y-89100000D01*
X131148157Y-88852235D01*
X131007809Y-88642191D01*
X130797765Y-88501843D01*
X130550000Y-88452560D01*
X128850000Y-88452560D01*
X128602235Y-88501843D01*
X128392191Y-88642191D01*
X128251843Y-88852235D01*
X128202560Y-89100000D01*
X128202560Y-89265000D01*
X126927405Y-89265000D01*
X126685983Y-89165000D01*
X126314017Y-89165000D01*
X125970365Y-89307345D01*
X125710000Y-89567710D01*
X125710000Y-60000000D01*
X128485908Y-60000000D01*
X128601161Y-60579418D01*
X128929375Y-61070625D01*
X129420582Y-61398839D01*
X129853744Y-61485000D01*
X130146256Y-61485000D01*
X130579418Y-61398839D01*
X131070625Y-61070625D01*
X131085096Y-61048967D01*
X131151673Y-61209698D01*
X131330301Y-61388327D01*
X131563690Y-61485000D01*
X132254250Y-61485000D01*
X132413000Y-61326250D01*
X132413000Y-60127000D01*
X132667000Y-60127000D01*
X132667000Y-61326250D01*
X132825750Y-61485000D01*
X133516310Y-61485000D01*
X133749699Y-61388327D01*
X133928327Y-61209698D01*
X134025000Y-60976309D01*
X134025000Y-60650565D01*
X152544741Y-60650565D01*
X152550533Y-61387957D01*
X152772892Y-62091049D01*
X153192158Y-62697677D01*
X153771263Y-63154206D01*
X154459005Y-63420274D01*
X155194579Y-63472355D01*
X155912949Y-63305846D01*
X156550602Y-62935467D01*
X157051160Y-62393967D01*
X157370367Y-61729220D01*
X157480000Y-61000000D01*
X157479694Y-60961046D01*
X157358620Y-60233638D01*
X157241878Y-60000000D01*
X175985908Y-60000000D01*
X176101161Y-60579418D01*
X176429375Y-61070625D01*
X176920582Y-61398839D01*
X177353744Y-61485000D01*
X177646256Y-61485000D01*
X178079418Y-61398839D01*
X178570625Y-61070625D01*
X178585096Y-61048967D01*
X178651673Y-61209698D01*
X178830301Y-61388327D01*
X179063690Y-61485000D01*
X179754250Y-61485000D01*
X179913000Y-61326250D01*
X179913000Y-60127000D01*
X180167000Y-60127000D01*
X180167000Y-61326250D01*
X180325750Y-61485000D01*
X181016310Y-61485000D01*
X181249699Y-61388327D01*
X181428327Y-61209698D01*
X181525000Y-60976309D01*
X181525000Y-60285750D01*
X181366250Y-60127000D01*
X180167000Y-60127000D01*
X179913000Y-60127000D01*
X179893000Y-60127000D01*
X179893000Y-59873000D01*
X179913000Y-59873000D01*
X179913000Y-58673750D01*
X180167000Y-58673750D01*
X180167000Y-59873000D01*
X181366250Y-59873000D01*
X181525000Y-59714250D01*
X181525000Y-59023691D01*
X181428327Y-58790302D01*
X181249699Y-58611673D01*
X181016310Y-58515000D01*
X180325750Y-58515000D01*
X180167000Y-58673750D01*
X179913000Y-58673750D01*
X179754250Y-58515000D01*
X179063690Y-58515000D01*
X178830301Y-58611673D01*
X178651673Y-58790302D01*
X178585096Y-58951033D01*
X178570625Y-58929375D01*
X178079418Y-58601161D01*
X177646256Y-58515000D01*
X177353744Y-58515000D01*
X176920582Y-58601161D01*
X176429375Y-58929375D01*
X176101161Y-59420582D01*
X175985908Y-60000000D01*
X157241878Y-60000000D01*
X157029011Y-59573987D01*
X156520009Y-59040416D01*
X155876618Y-58680099D01*
X155155720Y-58524894D01*
X154421055Y-58588523D01*
X153737577Y-58865360D01*
X153165715Y-59330929D01*
X152756029Y-59944067D01*
X152544741Y-60650565D01*
X134025000Y-60650565D01*
X134025000Y-60285750D01*
X133866250Y-60127000D01*
X132667000Y-60127000D01*
X132413000Y-60127000D01*
X132393000Y-60127000D01*
X132393000Y-59873000D01*
X132413000Y-59873000D01*
X132413000Y-58673750D01*
X132667000Y-58673750D01*
X132667000Y-59873000D01*
X133866250Y-59873000D01*
X134025000Y-59714250D01*
X134025000Y-59023691D01*
X133928327Y-58790302D01*
X133749699Y-58611673D01*
X133516310Y-58515000D01*
X132825750Y-58515000D01*
X132667000Y-58673750D01*
X132413000Y-58673750D01*
X132254250Y-58515000D01*
X131563690Y-58515000D01*
X131330301Y-58611673D01*
X131151673Y-58790302D01*
X131085096Y-58951033D01*
X131070625Y-58929375D01*
X130579418Y-58601161D01*
X130146256Y-58515000D01*
X129853744Y-58515000D01*
X129420582Y-58601161D01*
X128929375Y-58929375D01*
X128601161Y-59420582D01*
X128485908Y-60000000D01*
X125710000Y-60000000D01*
X125710000Y-56710000D01*
X184290000Y-56710000D01*
X184290001Y-125290000D01*
G36*
X154071415Y-109992282D02*
X154117999Y-110062001D01*
X154394199Y-110246552D01*
X154637763Y-110295000D01*
X154637766Y-110295000D01*
X154719999Y-110311357D01*
X154802232Y-110295000D01*
X154822595Y-110295000D01*
X155064017Y-110395000D01*
X155435983Y-110395000D01*
X155677405Y-110295000D01*
X156329413Y-110295000D01*
X156302560Y-110430000D01*
X156302560Y-111030000D01*
X156351843Y-111277765D01*
X156410132Y-111365000D01*
X156351843Y-111452235D01*
X156302560Y-111700000D01*
X156302560Y-112300000D01*
X156351843Y-112547765D01*
X156410132Y-112635000D01*
X156351843Y-112722235D01*
X156302560Y-112970000D01*
X156302560Y-113570000D01*
X156351843Y-113817765D01*
X156410132Y-113905000D01*
X156351843Y-113992235D01*
X156302560Y-114240000D01*
X156302560Y-114840000D01*
X156351843Y-115087765D01*
X156404768Y-115166972D01*
X156315000Y-115383690D01*
X156315000Y-115524250D01*
X156473750Y-115683000D01*
X157573000Y-115683000D01*
X157573000Y-115663000D01*
X157827000Y-115663000D01*
X157827000Y-115683000D01*
X158926250Y-115683000D01*
X159065000Y-115544250D01*
X159065000Y-115685983D01*
X159195070Y-116000000D01*
X159065000Y-116314017D01*
X159065000Y-116415000D01*
X159010984Y-116415000D01*
X159085000Y-116236310D01*
X159085000Y-116095750D01*
X158926250Y-115937000D01*
X157827000Y-115937000D01*
X157827000Y-115957000D01*
X157573000Y-115957000D01*
X157573000Y-115937000D01*
X156473750Y-115937000D01*
X156315000Y-116095750D01*
X156315000Y-116236310D01*
X156389016Y-116415000D01*
X155805868Y-116415000D01*
X153697440Y-114306573D01*
X153697440Y-114240000D01*
X153648157Y-113992235D01*
X153589868Y-113905000D01*
X153648157Y-113817765D01*
X153697440Y-113570000D01*
X153697440Y-112970000D01*
X153648157Y-112722235D01*
X153589868Y-112635000D01*
X153648157Y-112547765D01*
X153697440Y-112300000D01*
X153697440Y-111700000D01*
X153648157Y-111452235D01*
X153589868Y-111365000D01*
X153648157Y-111277765D01*
X153697440Y-111030000D01*
X153697440Y-110430000D01*
X153648157Y-110182235D01*
X153589868Y-110095000D01*
X153648157Y-110007765D01*
X153697440Y-109760000D01*
X153697440Y-109618308D01*
X154071415Y-109992282D01*
X154071415Y-109992282D01*
G37*
X154071415Y-109992282D02*
X154117999Y-110062001D01*
X154394199Y-110246552D01*
X154637763Y-110295000D01*
X154637766Y-110295000D01*
X154719999Y-110311357D01*
X154802232Y-110295000D01*
X154822595Y-110295000D01*
X155064017Y-110395000D01*
X155435983Y-110395000D01*
X155677405Y-110295000D01*
X156329413Y-110295000D01*
X156302560Y-110430000D01*
X156302560Y-111030000D01*
X156351843Y-111277765D01*
X156410132Y-111365000D01*
X156351843Y-111452235D01*
X156302560Y-111700000D01*
X156302560Y-112300000D01*
X156351843Y-112547765D01*
X156410132Y-112635000D01*
X156351843Y-112722235D01*
X156302560Y-112970000D01*
X156302560Y-113570000D01*
X156351843Y-113817765D01*
X156410132Y-113905000D01*
X156351843Y-113992235D01*
X156302560Y-114240000D01*
X156302560Y-114840000D01*
X156351843Y-115087765D01*
X156404768Y-115166972D01*
X156315000Y-115383690D01*
X156315000Y-115524250D01*
X156473750Y-115683000D01*
X157573000Y-115683000D01*
X157573000Y-115663000D01*
X157827000Y-115663000D01*
X157827000Y-115683000D01*
X158926250Y-115683000D01*
X159065000Y-115544250D01*
X159065000Y-115685983D01*
X159195070Y-116000000D01*
X159065000Y-116314017D01*
X159065000Y-116415000D01*
X159010984Y-116415000D01*
X159085000Y-116236310D01*
X159085000Y-116095750D01*
X158926250Y-115937000D01*
X157827000Y-115937000D01*
X157827000Y-115957000D01*
X157573000Y-115957000D01*
X157573000Y-115937000D01*
X156473750Y-115937000D01*
X156315000Y-116095750D01*
X156315000Y-116236310D01*
X156389016Y-116415000D01*
X155805868Y-116415000D01*
X153697440Y-114306573D01*
X153697440Y-114240000D01*
X153648157Y-113992235D01*
X153589868Y-113905000D01*
X153648157Y-113817765D01*
X153697440Y-113570000D01*
X153697440Y-112970000D01*
X153648157Y-112722235D01*
X153589868Y-112635000D01*
X153648157Y-112547765D01*
X153697440Y-112300000D01*
X153697440Y-111700000D01*
X153648157Y-111452235D01*
X153589868Y-111365000D01*
X153648157Y-111277765D01*
X153697440Y-111030000D01*
X153697440Y-110430000D01*
X153648157Y-110182235D01*
X153589868Y-110095000D01*
X153648157Y-110007765D01*
X153697440Y-109760000D01*
X153697440Y-109618308D01*
X154071415Y-109992282D01*
G36*
X144425933Y-110893200D02*
X144435000Y-110871310D01*
X144435000Y-110730750D01*
X144276250Y-110572000D01*
X143177000Y-110572000D01*
X143177000Y-111221250D01*
X143335750Y-111380000D01*
X143926309Y-111380000D01*
X143948201Y-111370932D01*
X143254143Y-112064990D01*
X140115877Y-112064990D01*
X141532283Y-110648585D01*
X141602001Y-110602001D01*
X141665000Y-110507716D01*
X141665000Y-110572002D01*
X141823748Y-110572002D01*
X141665000Y-110730750D01*
X141665000Y-110871310D01*
X141761673Y-111104699D01*
X141940302Y-111283327D01*
X142173691Y-111380000D01*
X142764250Y-111380000D01*
X142923000Y-111221250D01*
X142923000Y-110572000D01*
X142903000Y-110572000D01*
X142903000Y-110318000D01*
X142923000Y-110318000D01*
X142923000Y-110298000D01*
X143177000Y-110298000D01*
X143177000Y-110318000D01*
X144276250Y-110318000D01*
X144435000Y-110159250D01*
X144435000Y-110018690D01*
X144431400Y-110010000D01*
X144892767Y-110010000D01*
X144975000Y-110026357D01*
X145057233Y-110010000D01*
X145057237Y-110010000D01*
X145300801Y-109961552D01*
X145471916Y-109847217D01*
X144425933Y-110893200D01*
X144425933Y-110893200D01*
G37*
X144425933Y-110893200D02*
X144435000Y-110871310D01*
X144435000Y-110730750D01*
X144276250Y-110572000D01*
X143177000Y-110572000D01*
X143177000Y-111221250D01*
X143335750Y-111380000D01*
X143926309Y-111380000D01*
X143948201Y-111370932D01*
X143254143Y-112064990D01*
X140115877Y-112064990D01*
X141532283Y-110648585D01*
X141602001Y-110602001D01*
X141665000Y-110507716D01*
X141665000Y-110572002D01*
X141823748Y-110572002D01*
X141665000Y-110730750D01*
X141665000Y-110871310D01*
X141761673Y-111104699D01*
X141940302Y-111283327D01*
X142173691Y-111380000D01*
X142764250Y-111380000D01*
X142923000Y-111221250D01*
X142923000Y-110572000D01*
X142903000Y-110572000D01*
X142903000Y-110318000D01*
X142923000Y-110318000D01*
X142923000Y-110298000D01*
X143177000Y-110298000D01*
X143177000Y-110318000D01*
X144276250Y-110318000D01*
X144435000Y-110159250D01*
X144435000Y-110018690D01*
X144431400Y-110010000D01*
X144892767Y-110010000D01*
X144975000Y-110026357D01*
X145057233Y-110010000D01*
X145057237Y-110010000D01*
X145300801Y-109961552D01*
X145471916Y-109847217D01*
X144425933Y-110893200D01*
G36*
X178665000Y-106754132D02*
X174355222Y-111063911D01*
X174435000Y-110871310D01*
X174435000Y-110730750D01*
X174276250Y-110572000D01*
X173177000Y-110572000D01*
X173177000Y-110592000D01*
X172923000Y-110592000D01*
X172923000Y-110572000D01*
X172903000Y-110572000D01*
X172903000Y-110318000D01*
X172923000Y-110318000D01*
X172923000Y-110298000D01*
X173177000Y-110298000D01*
X173177000Y-110318000D01*
X174276250Y-110318000D01*
X174435000Y-110159250D01*
X174435000Y-110018690D01*
X174431400Y-110010000D01*
X174892767Y-110010000D01*
X174975000Y-110026357D01*
X175057233Y-110010000D01*
X175057237Y-110010000D01*
X175300801Y-109961552D01*
X175577001Y-109777001D01*
X175623587Y-109707280D01*
X178665000Y-106665868D01*
X178665000Y-106754132D01*
X178665000Y-106754132D01*
G37*
X178665000Y-106754132D02*
X174355222Y-111063911D01*
X174435000Y-110871310D01*
X174435000Y-110730750D01*
X174276250Y-110572000D01*
X173177000Y-110572000D01*
X173177000Y-110592000D01*
X172923000Y-110592000D01*
X172923000Y-110572000D01*
X172903000Y-110572000D01*
X172903000Y-110318000D01*
X172923000Y-110318000D01*
X172923000Y-110298000D01*
X173177000Y-110298000D01*
X173177000Y-110318000D01*
X174276250Y-110318000D01*
X174435000Y-110159250D01*
X174435000Y-110018690D01*
X174431400Y-110010000D01*
X174892767Y-110010000D01*
X174975000Y-110026357D01*
X175057233Y-110010000D01*
X175057237Y-110010000D01*
X175300801Y-109961552D01*
X175577001Y-109777001D01*
X175623587Y-109707280D01*
X178665000Y-106665868D01*
X178665000Y-106754132D01*
G04 #@! TD*
M02*
