M48
;DRILL file {KiCad (5.0.0-rc2-dev-756-g45dad4ded)} date 06/12/18 00:48:58
;FORMAT={-:-/ absolute / inch / decimal}
FMAT,2
INCH,TZ
T1C0.0157
T2C0.0394
T3C0.0591
T4C0.1260
%
G90
G05
M72
T1
X4.9803Y-3.5472
X5.Y-4.2913
X5.0315Y-3.8228
X5.0394Y-3.6201
X5.0591Y-2.7953
X5.0877Y-3.371
X5.1211Y-3.8552
X5.1575Y-2.815
X5.2432Y-3.192
X5.2559Y-4.0945
X5.2756Y-4.2913
X5.2953Y-4.4094
X5.3543Y-2.815
X5.3937Y-4.4094
X5.4112Y-3.9982
X5.4134Y-4.4783
X5.4171Y-4.0982
X5.4528Y-3.9272
X5.4744Y-3.1102
X5.5512Y-2.815
X5.5689Y-3.939
X5.5906Y-4.4094
X5.5906Y-4.7047
X5.689Y-3.9961
X5.7117Y-3.1546
X5.7185Y-4.439
X5.7283Y-3.9961
X5.748Y-2.815
X5.748Y-3.3268
X5.7677Y-3.5236
X5.7677Y-3.9685
X5.7992Y-4.1535
X5.8071Y-3.937
X5.8071Y-4.0354
X5.8169Y-3.8681
X5.8465Y-3.9961
X5.8524Y-4.1535
X5.8858Y-3.9567
X5.9055Y-4.2717
X5.9843Y-4.6654
X6.0039Y-2.815
X6.1024Y-4.5079
X6.1122Y-4.3094
X6.1614Y-3.5472
X6.2126Y-3.8228
X6.2205Y-3.6201
X6.2402Y-2.7953
X6.2648Y-3.3788
X6.2894Y-4.2618
X6.2992Y-4.5472
X6.2992Y-4.5866
X6.3022Y-3.8513
X6.3189Y-4.3012
X6.3386Y-2.815
X6.3681Y-4.1339
X6.4243Y-3.192
X6.437Y-4.0945
X6.4469Y-4.1339
X6.4764Y-4.3012
X6.4961Y-4.5866
X6.5354Y-2.815
X6.5748Y-4.4094
X6.5925Y-4.0984
X6.5945Y-3.9961
X6.6555Y-3.1102
X6.7303Y-4.0551
X6.7323Y-2.815
X6.813Y-4.4094
X6.8307Y-4.5079
X6.8679Y-4.3482
X6.8701Y-3.9961
X6.8898Y-3.3661
X6.8928Y-3.1546
X6.9094Y-3.9961
X6.9291Y-2.815
X6.9488Y-3.5236
X6.9488Y-3.9685
X6.9488Y-4.4291
X6.9822Y-4.1535
X6.9882Y-3.937
X6.9882Y-4.0354
X7.001Y-3.874
X7.0177Y-4.3209
X7.0276Y-3.9961
X7.0335Y-4.1535
X7.0669Y-3.9567
X7.0866Y-4.8327
X7.0965Y-4.3996
X7.185Y-2.815
T2
X6.4756Y-4.7031
X6.4756Y-4.8031
X6.5756Y-4.7031
X6.5756Y-4.8031
X6.6756Y-4.7031
X6.6756Y-4.8031
X6.7756Y-4.7031
X6.7756Y-4.8031
X6.8756Y-4.7031
X6.8756Y-4.8031
X5.1181Y-2.3622
X5.2181Y-2.3622
X6.9882Y-2.3622
X7.0882Y-2.3622
T3
X6.5059Y-3.5827
X6.5309Y-3.4892
X6.5309Y-3.6762
X6.5994Y-3.4207
X6.5994Y-3.7446
X6.6929Y-3.3957
X6.6929Y-3.7697
X6.7864Y-3.4207
X6.8549Y-3.4892
X6.8549Y-3.6762
X6.8799Y-3.5827
X5.3248Y-3.5827
X5.3498Y-3.4892
X5.3498Y-3.6762
X5.4183Y-3.4207
X5.4183Y-3.7446
X5.5118Y-3.3957
X5.5118Y-3.7697
X5.6053Y-3.4207
X5.6738Y-3.4892
X5.6738Y-3.6762
X5.6988Y-3.5827
T4
X6.1024Y-4.7638
X6.1024Y-2.4016
X5.0394Y-4.0551
X6.2205Y-4.0551
T0
M30
