G04 #@! TF.GenerationSoftware,KiCad,Pcbnew,(5.0.0-rc2-dev-756-g45dad4ded)*
G04 #@! TF.CreationDate,2018-06-12T00:49:02-07:00*
G04 #@! TF.ProjectId,Mod-IN2-Nix-Dis,4D6F642D494E322D4E69782D4469732E,rev?*
G04 #@! TF.SameCoordinates,Original*
G04 #@! TF.FileFunction,Legend,Bot*
G04 #@! TF.FilePolarity,Positive*
%FSLAX46Y46*%
G04 Gerber Fmt 4.6, Leading zero omitted, Abs format (unit mm)*
G04 Created by KiCad (PCBNEW (5.0.0-rc2-dev-756-g45dad4ded)) date 06/12/18 00:49:02*
%MOMM*%
%LPD*%
G01*
G04 APERTURE LIST*
%ADD10C,0.120000*%
%ADD11C,0.150000*%
G04 APERTURE END LIST*
D10*
G04 #@! TO.C,C1*
X181020000Y-117000000D02*
X181020000Y-119000000D01*
X178980000Y-119000000D02*
X178980000Y-117000000D01*
G04 #@! TO.C,R15*
X160770000Y-93100000D02*
X160770000Y-91100000D01*
X158630000Y-91100000D02*
X158630000Y-93100000D01*
G04 #@! TO.C,R16*
X130770000Y-93100000D02*
X130770000Y-91100000D01*
X128630000Y-91100000D02*
X128630000Y-93100000D01*
G04 #@! TO.C,R19*
X163970000Y-99300000D02*
X163970000Y-97300000D01*
X161830000Y-97300000D02*
X161830000Y-99300000D01*
G04 #@! TO.C,R20*
X133970000Y-99300000D02*
X133970000Y-97300000D01*
X131830000Y-97300000D02*
X131830000Y-99300000D01*
D11*
G04 #@! TO.C,U1*
X157075000Y-107550000D02*
X157075000Y-107575000D01*
X152925000Y-107550000D02*
X152925000Y-107665000D01*
X152925000Y-116450000D02*
X152925000Y-116335000D01*
X157075000Y-116450000D02*
X157075000Y-116335000D01*
X157075000Y-107550000D02*
X152925000Y-107550000D01*
X157075000Y-116450000D02*
X152925000Y-116450000D01*
X157075000Y-107575000D02*
X158450000Y-107575000D01*
G04 #@! TO.C,U2*
X172275000Y-100725000D02*
X172275000Y-101000000D01*
X166725000Y-100725000D02*
X166725000Y-101080000D01*
X166725000Y-111275000D02*
X166725000Y-110920000D01*
X172275000Y-111275000D02*
X172275000Y-110920000D01*
X172275000Y-100725000D02*
X166725000Y-100725000D01*
X172275000Y-111275000D02*
X166725000Y-111275000D01*
X172275000Y-101000000D02*
X173800000Y-101000000D01*
G04 #@! TO.C,U3*
X142275000Y-100725000D02*
X142275000Y-101000000D01*
X136725000Y-100725000D02*
X136725000Y-101080000D01*
X136725000Y-111275000D02*
X136725000Y-110920000D01*
X142275000Y-111275000D02*
X142275000Y-110920000D01*
X142275000Y-100725000D02*
X136725000Y-100725000D01*
X142275000Y-111275000D02*
X136725000Y-111275000D01*
X142275000Y-101000000D02*
X143800000Y-101000000D01*
G04 #@! TO.C,C1*
X182107142Y-117833333D02*
X182154761Y-117785714D01*
X182202380Y-117642857D01*
X182202380Y-117547619D01*
X182154761Y-117404761D01*
X182059523Y-117309523D01*
X181964285Y-117261904D01*
X181773809Y-117214285D01*
X181630952Y-117214285D01*
X181440476Y-117261904D01*
X181345238Y-117309523D01*
X181250000Y-117404761D01*
X181202380Y-117547619D01*
X181202380Y-117642857D01*
X181250000Y-117785714D01*
X181297619Y-117833333D01*
X182202380Y-118785714D02*
X182202380Y-118214285D01*
X182202380Y-118500000D02*
X181202380Y-118500000D01*
X181345238Y-118404761D01*
X181440476Y-118309523D01*
X181488095Y-118214285D01*
G04 #@! TO.C,R15*
X158302380Y-91457142D02*
X157826190Y-91123809D01*
X158302380Y-90885714D02*
X157302380Y-90885714D01*
X157302380Y-91266666D01*
X157350000Y-91361904D01*
X157397619Y-91409523D01*
X157492857Y-91457142D01*
X157635714Y-91457142D01*
X157730952Y-91409523D01*
X157778571Y-91361904D01*
X157826190Y-91266666D01*
X157826190Y-90885714D01*
X158302380Y-92409523D02*
X158302380Y-91838095D01*
X158302380Y-92123809D02*
X157302380Y-92123809D01*
X157445238Y-92028571D01*
X157540476Y-91933333D01*
X157588095Y-91838095D01*
X157302380Y-93314285D02*
X157302380Y-92838095D01*
X157778571Y-92790476D01*
X157730952Y-92838095D01*
X157683333Y-92933333D01*
X157683333Y-93171428D01*
X157730952Y-93266666D01*
X157778571Y-93314285D01*
X157873809Y-93361904D01*
X158111904Y-93361904D01*
X158207142Y-93314285D01*
X158254761Y-93266666D01*
X158302380Y-93171428D01*
X158302380Y-92933333D01*
X158254761Y-92838095D01*
X158207142Y-92790476D01*
G04 #@! TO.C,R16*
X128302380Y-91457142D02*
X127826190Y-91123809D01*
X128302380Y-90885714D02*
X127302380Y-90885714D01*
X127302380Y-91266666D01*
X127350000Y-91361904D01*
X127397619Y-91409523D01*
X127492857Y-91457142D01*
X127635714Y-91457142D01*
X127730952Y-91409523D01*
X127778571Y-91361904D01*
X127826190Y-91266666D01*
X127826190Y-90885714D01*
X128302380Y-92409523D02*
X128302380Y-91838095D01*
X128302380Y-92123809D02*
X127302380Y-92123809D01*
X127445238Y-92028571D01*
X127540476Y-91933333D01*
X127588095Y-91838095D01*
X127302380Y-93266666D02*
X127302380Y-93076190D01*
X127350000Y-92980952D01*
X127397619Y-92933333D01*
X127540476Y-92838095D01*
X127730952Y-92790476D01*
X128111904Y-92790476D01*
X128207142Y-92838095D01*
X128254761Y-92885714D01*
X128302380Y-92980952D01*
X128302380Y-93171428D01*
X128254761Y-93266666D01*
X128207142Y-93314285D01*
X128111904Y-93361904D01*
X127873809Y-93361904D01*
X127778571Y-93314285D01*
X127730952Y-93266666D01*
X127683333Y-93171428D01*
X127683333Y-92980952D01*
X127730952Y-92885714D01*
X127778571Y-92838095D01*
X127873809Y-92790476D01*
G04 #@! TO.C,R19*
X161502380Y-97657142D02*
X161026190Y-97323809D01*
X161502380Y-97085714D02*
X160502380Y-97085714D01*
X160502380Y-97466666D01*
X160550000Y-97561904D01*
X160597619Y-97609523D01*
X160692857Y-97657142D01*
X160835714Y-97657142D01*
X160930952Y-97609523D01*
X160978571Y-97561904D01*
X161026190Y-97466666D01*
X161026190Y-97085714D01*
X161502380Y-98609523D02*
X161502380Y-98038095D01*
X161502380Y-98323809D02*
X160502380Y-98323809D01*
X160645238Y-98228571D01*
X160740476Y-98133333D01*
X160788095Y-98038095D01*
X161502380Y-99085714D02*
X161502380Y-99276190D01*
X161454761Y-99371428D01*
X161407142Y-99419047D01*
X161264285Y-99514285D01*
X161073809Y-99561904D01*
X160692857Y-99561904D01*
X160597619Y-99514285D01*
X160550000Y-99466666D01*
X160502380Y-99371428D01*
X160502380Y-99180952D01*
X160550000Y-99085714D01*
X160597619Y-99038095D01*
X160692857Y-98990476D01*
X160930952Y-98990476D01*
X161026190Y-99038095D01*
X161073809Y-99085714D01*
X161121428Y-99180952D01*
X161121428Y-99371428D01*
X161073809Y-99466666D01*
X161026190Y-99514285D01*
X160930952Y-99561904D01*
G04 #@! TO.C,R20*
X131502380Y-97657142D02*
X131026190Y-97323809D01*
X131502380Y-97085714D02*
X130502380Y-97085714D01*
X130502380Y-97466666D01*
X130550000Y-97561904D01*
X130597619Y-97609523D01*
X130692857Y-97657142D01*
X130835714Y-97657142D01*
X130930952Y-97609523D01*
X130978571Y-97561904D01*
X131026190Y-97466666D01*
X131026190Y-97085714D01*
X130597619Y-98038095D02*
X130550000Y-98085714D01*
X130502380Y-98180952D01*
X130502380Y-98419047D01*
X130550000Y-98514285D01*
X130597619Y-98561904D01*
X130692857Y-98609523D01*
X130788095Y-98609523D01*
X130930952Y-98561904D01*
X131502380Y-97990476D01*
X131502380Y-98609523D01*
X130502380Y-99228571D02*
X130502380Y-99323809D01*
X130550000Y-99419047D01*
X130597619Y-99466666D01*
X130692857Y-99514285D01*
X130883333Y-99561904D01*
X131121428Y-99561904D01*
X131311904Y-99514285D01*
X131407142Y-99466666D01*
X131454761Y-99419047D01*
X131502380Y-99323809D01*
X131502380Y-99228571D01*
X131454761Y-99133333D01*
X131407142Y-99085714D01*
X131311904Y-99038095D01*
X131121428Y-98990476D01*
X130883333Y-98990476D01*
X130692857Y-99038095D01*
X130597619Y-99085714D01*
X130550000Y-99133333D01*
X130502380Y-99228571D01*
G04 #@! TO.C,U1*
X155761904Y-106077380D02*
X155761904Y-106886904D01*
X155714285Y-106982142D01*
X155666666Y-107029761D01*
X155571428Y-107077380D01*
X155380952Y-107077380D01*
X155285714Y-107029761D01*
X155238095Y-106982142D01*
X155190476Y-106886904D01*
X155190476Y-106077380D01*
X154190476Y-107077380D02*
X154761904Y-107077380D01*
X154476190Y-107077380D02*
X154476190Y-106077380D01*
X154571428Y-106220238D01*
X154666666Y-106315476D01*
X154761904Y-106363095D01*
G04 #@! TO.C,U2*
X170261904Y-99252380D02*
X170261904Y-100061904D01*
X170214285Y-100157142D01*
X170166666Y-100204761D01*
X170071428Y-100252380D01*
X169880952Y-100252380D01*
X169785714Y-100204761D01*
X169738095Y-100157142D01*
X169690476Y-100061904D01*
X169690476Y-99252380D01*
X169261904Y-99347619D02*
X169214285Y-99300000D01*
X169119047Y-99252380D01*
X168880952Y-99252380D01*
X168785714Y-99300000D01*
X168738095Y-99347619D01*
X168690476Y-99442857D01*
X168690476Y-99538095D01*
X168738095Y-99680952D01*
X169309523Y-100252380D01*
X168690476Y-100252380D01*
G04 #@! TO.C,U3*
X140261904Y-99252380D02*
X140261904Y-100061904D01*
X140214285Y-100157142D01*
X140166666Y-100204761D01*
X140071428Y-100252380D01*
X139880952Y-100252380D01*
X139785714Y-100204761D01*
X139738095Y-100157142D01*
X139690476Y-100061904D01*
X139690476Y-99252380D01*
X139309523Y-99252380D02*
X138690476Y-99252380D01*
X139023809Y-99633333D01*
X138880952Y-99633333D01*
X138785714Y-99680952D01*
X138738095Y-99728571D01*
X138690476Y-99823809D01*
X138690476Y-100061904D01*
X138738095Y-100157142D01*
X138785714Y-100204761D01*
X138880952Y-100252380D01*
X139166666Y-100252380D01*
X139261904Y-100204761D01*
X139309523Y-100157142D01*
G04 #@! TD*
M02*
